<svg id="Layer_1" data-name="Layer 1" xmlns="http://www.w3.org/2000/svg" viewBox="0 0 638.821 538.187">
  <path d="M612.743,537.428H0c6.714-19.814,19.113-36.622,36.592-41.609,25.568-7.285,52.627,12.747,78.139,5.214,14.494-4.274,25.9-16.731,37.9-27.075,45.235-39.029,107.222-50.565,160.755-29.908,27.979,10.793,53.474,29.667,82.135,37.691,37.063,10.38,75.822,1.772,113.936.354C546.569,480.713,599.754,498.219,612.743,537.428Z" fill="#f3f5fd"></path>
  <g>
    <rect x="14.053" y="457.055" width="160.001" height="6" transform="translate(-374.793 433.985) rotate(-75.263)" fill="#c1d8ed"></rect>
    <rect x="189.799" y="381.739" width="6" height="156.63" transform="translate(-68.935 35.417) rotate(-8.911)" fill="#c1d8ed"></rect>
    <path d="M106.056,234.254s-49.565-3.131-49.565,40.174,7.3,103.826,43.826,110.608,90.481,4.738,103.008,2.615c15.391-2.609,22.1-38.311,1.6-40.7C146.751,340.168,174.925,238.95,106.056,234.254Z" fill="#c1d8ed"></path>
  </g>
  <line x1="211.276" y1="508.282" x2="209.39" y2="532.741" fill="none" stroke="#e98862" stroke-miterlimit="10" stroke-width="21"></line>
  <path d="M246.465,537.241a4.107,4.107,0,0,0,4.089-4.125c0-.1,0-.2-.013-.3h0a4.109,4.109,0,0,0-2.658-3.529L223.44,521.1a3.463,3.463,0,0,0-2.872.32,19.1,19.1,0,0,1-11.468,3.4,17.023,17.023,0,0,1-8.82-3.223,1.548,1.548,0,0,0-2.528,1.2v11.952a2.678,2.678,0,0,0,2.678,2.678h.011Z" fill="#c1d8ed"></path>
  <line x1="294.58" y1="508.282" x2="298.694" y2="532.741" fill="none" stroke="#e98862" stroke-miterlimit="10" stroke-width="21"></line>
  <path d="M315.634,511.9,269.526,334.512a18.5,18.5,0,0,0-17.9-13.845H150.578v.065H93.969V338.08a38.087,38.087,0,0,0,38.086,38.088h27.61v.109h48.2L194.593,517.391l36.838,3.464L244.264,384.4l35.56,136.805Z" fill="#262626"></path>
  <g>
    <path d="M238.644,235.952s.15-12.011,8.735-11.386c5.416.394,31.151-.8,31.534,1.544.948,5.8-22.592,7.218-24.728,12.622Z" fill="#E98862"></path>
    <path d="M244.339,224.951s11.949-3.9,14.886-3.2c2.6.618-2.82,4.85-2.82,4.85Z" fill="#E98862"></path>
  </g>
  <path d="M213.963,288.655,256.6,239.021l-18.374-10.332L204.084,267.1l-26.7-47.791c-2.526-7.553-8.28-12.613-20.02-13.119-.63-.02-1.64-.05-2.94-.07-.26,5.5-34.33,5.48-35.05-.13-9.62.01-17.52,2.97-22.08,7.53-15.75,15.75,3.58,42.59,3.58,63.59s-9.5,30.42-8.8,41.2c1.1,16.94,83.43,12.94,87.62,3.31,2.81-6.452.087-11.3-2.056-22.837h36.324Zm-38.328-15.549c.041-3.533.314-7.23.689-10.992l8.3,14.86h-8.986c-.013-1.251-.018-2.529,0-3.868Z" fill="#367CFF"></path>
  <path d="M154.425,206.116c-.26,5.5-3.26,13.59-12.48,14.19-12.31.82-21.85-8.71-22.57-14.32h.04C131.515,205.986,147.355,206.006,154.425,206.116Z" fill="#E98862"></path>
  <path d="M332.769,537.241a4.108,4.108,0,0,0,4.089-4.127c0-.1,0-.2-.013-.3h0a4.111,4.111,0,0,0-2.659-3.529L309.744,521.1a3.466,3.466,0,0,0-2.873.32,19.1,19.1,0,0,1-11.467,3.4,17.026,17.026,0,0,1-8.821-3.223,1.547,1.547,0,0,0-2.527,1.2v11.952a2.678,2.678,0,0,0,2.678,2.678h.011Z" fill="#c1d8ed"></path>
  <g>
    <rect x="36.678" y="308.471" width="9.391" height="228.957" fill="#dee8f5"></rect>
    <rect x="489.652" y="308.471" width="9.391" height="228.957" fill="#c1d8ed"></rect>
    <rect x="414.348" y="305.602" width="84.695" height="216.171" fill="#c1d8ed"></rect>
    <rect x="397.439" y="506.117" width="9.391" height="31.311" fill="#c1d8ed"></rect>
    <rect x="23.695" y="299.015" width="488.332" height="12.913" fill="#dee8f5"></rect>
    <rect x="409.652" y="308.471" width="9.391" height="228.957" fill="#dee8f5"></rect>
    <rect x="317.439" y="308.471" width="9.391" height="228.957" fill="#dee8f5"></rect>
    <rect x="322.135" y="311.946" width="92.213" height="209.827" fill="#dee8f5"></rect>
  </g>
  <path d="M244.086,290.105c-5.73-.337-15.891-1.278-20.13-3.793,2.149-.656,5.031-1.727,4.76-2.689-.711-2.531-10.674-.958-13.654-.958l-1.085.045v12.805s19.634,7.362,31.19-2.064A1.888,1.888,0,0,0,244.086,290.105Z" fill="#E98862"></path>
  <g>
    <g>
      <path d="M300.158,241.22l-12.142,50.972a5.4,5.4,0,0,0,4,6.5,5.457,5.457,0,0,0,1.247.147h71.584a5.4,5.4,0,0,0,5.206-3.969L384.048,243.9a5.4,5.4,0,0,0-5.206-6.828H305.41A5.4,5.4,0,0,0,300.158,241.22Z" fill="#9ebcea"></path>
      <path d="M262.532,298.841h86.519a3.172,3.172,0,0,0,3.172-3.172h0a3.172,3.172,0,0,0-3.172-3.172H262.532a3.172,3.172,0,0,0-3.172,3.172h0A3.172,3.172,0,0,0,262.532,298.841Z" fill="#9ebcea"></path>
    </g>
    <circle cx="338.963" cy="267.454" r="8.466" fill="#fff"></circle>
  </g>
  <g>
    <circle cx="155.886" cy="177.682" r="9.584" fill="#dee8f5"></circle>
    <path d="M157.555,178.8a2,2,0,0,0,1.533-1.387c.25-.83,2.892-20.361-4.755-32.129a14.908,14.908,0,0,0-11.558-7.164,2,2,0,0,0-2.2,1.783c-.114,1.1.685,1.083,1.784,1.2,5.331.552,6.139,2.646,8.642,6.4,6.747,10.13,4.309,28.572,4.254,28.757a2,2,0,0,0,2.3,2.541Z" fill="#c1d8ed"></path>
    <circle cx="153.411" cy="177.456" r="9.584" fill="#c1d8ed"></circle>
    <g>
      <path d="M150.211,207.937l-.78.09h-24.65c2-3.32,4.16-9.83,3.16-22l15.98-2.96S142.121,201.947,150.211,207.937Z" fill="#E98862"></path>
      <path d="M146.935,203.994,133.662,193.84l10.425-.108A28.741,28.741,0,0,0,146.935,203.994Z" opacity="0.15"></path>
      <path d="M118.88,177.866c1.106,6.388,4.592,12.438,10.227,14.5a40.5,40.5,0,0,0,19.358,2.616c17.489-1.434,14.03-41.2,5.726-48.927s-32.673-2.832-35.637,10.088C117.021,162.826,117.827,171.785,118.88,177.866Z" fill="#E98862"></path>
      <path d="M159.96,147.429a5.565,5.565,0,0,0-2.12-1.959c-7.766-4.224-22.16-5.685-29.073-3.617-8.02,2.4-18.076,9.123-15.5,25.426.109.686.226,1.348.347,2a14,14,0,1,0,9.9,20.562,24.661,24.661,0,0,0,3.839,2.723c.957.569,1.188.106,1.52-.957,1.16-3.711,2.3-18.388,1.39-29.045l18.846-.652,3.284-9.342,2.692,9.342h6.418C162.364,156.845,163.252,151.107,159.96,147.429Z" fill="#0f1011"></path>
      <g>
        <circle cx="143.898" cy="171.496" r="1.449" fill="#0f1011"></circle>
        <circle cx="155.33" cy="170.558" r="1.449" fill="#0f1011"></circle>
        <path d="M157.841,167.471h-.009l-3.839-.049a.681.681,0,0,1,.009-1.361h.009l3.838.048a.681.681,0,0,1-.008,1.362Z" fill="#0f1011"></path>
        <path d="M140.77,168.87a.681.681,0,0,1-.158-1.343l3.784-.91a.681.681,0,1,1,.319,1.324l-3.784.91A.687.687,0,0,1,140.77,168.87Z" fill="#0f1011"></path>
      </g>
      <path d="M136.361,175.041a6.143,6.143,0,1,1-12.245,1,6.042,6.042,0,0,1,5.62-6.624C134.114,169.278,136.083,171.66,136.361,175.041Z" fill="#E98862"></path>
      <g opacity="0.15">
        <path d="M150.33,179.533a.5.5,0,0,1-.147-.978l2.948-.905-2.062-4.591a.5.5,0,1,1,.912-.409l2.294,5.107a.5.5,0,0,1-.309.683l-3.489,1.071A.5.5,0,0,1,150.33,179.533Z"></path>
      </g>
      <path d="M144.569,182.907s5.348.565,9.1-.746c0,0-.029,3.523-4.262,3.87S144.569,182.907,144.569,182.907Z" fill="#f8fcff"></path>
    </g>
    <path d="M121.033,177.652l.087-.019a2,2,0,0,0,1.476-2.412c-.039-.165-3.867-16.566,3.554-26.489,3.5-4.681,9.054-7.245,16.52-7.625,1.089-.052,1.953.006,1.9-1.1a2.1,2.1,0,0,0-2.1-1.9c-6.874-.515-15.285,2.552-19.531,8.239-8.542,11.442-4.409,29.064-4.228,29.809A2,2,0,0,0,121.033,177.652Z" fill="#c1d8ed"></path>
    <circle cx="123.879" cy="178.033" r="9.584" fill="#c1d8ed"></circle>
    <circle cx="120.935" cy="178.321" r="9.584" fill="#dee8f5"></circle>
    <path d="M122.093,183.379a49.906,49.906,0,0,0,1.786,6.189c1.157,1.915,17.54,1.051,17.54,1.051" fill="none" stroke="#dee8f5" stroke-linecap="round" stroke-linejoin="round" stroke-width="3"></path>
    <rect x="138.723" y="188.306" width="6.721" height="4.69" rx="2.345" transform="translate(284.168 381.303) rotate(-180)" fill="#c1d8ed"></rect>
  </g>
  <polygon points="267.151 209.948 279.646 200.478 395.845 200.478 395.845 123.879 267.151 123.879 267.151 209.948" fill="#dee8f5"></polygon>
  <g>
    <circle cx="525.707" cy="60.952" r="60.952" fill="#dee8f5"></circle>
    <g>
      <path d="M491.3,78.644s-4.833-7.677-4.635-9.756,6.238-4.182,6.238-4.182-.874-1.838-1.653-3.856c-.9-2.329-1.671-4.9-.828-5.151.813-.247,2.046,1.866,3.176,4.322,1.452,3.154,2.733,6.872,2.733,6.872s.133-3.672,1.491-3.438c.558.1.794.759.8,3.392,0,3,.469,7.676.469,7.676Z" fill="#E98862"></path>
      <path d="M506.644,113.059a7.038,7.038,0,0,1-6.517-4.39L487.478,77.517l13.039-5.3,3.83,9.432,3.007-15.025,13.8,2.762L513.547,107.4a7.04,7.04,0,0,1-6.239,5.625C507.086,113.048,506.864,113.059,506.644,113.059Z" fill="#367CFF"></path>
      <path d="M483.807,87.8l7.824-1.249a2.211,2.211,0,0,0,1.782-2.778l-4.922-17.667a2.212,2.212,0,0,0-2.48-1.591l-7.823,1.249a2.212,2.212,0,0,0-1.783,2.778l4.923,17.667A2.213,2.213,0,0,0,483.807,87.8Z" fill="#c1d8ed"></path>
      <path d="M496.407,83.172l-4.614,6.261s-12.4-2.486-13.566-12.041c-.134-1.1-.018-4.143,1.344-3.735,3.549,1.064,7.968,6.511,11.066,7.235-.707-1.266-1.57-3.053-1.013-3.38C491.086,76.653,495.02,81.84,496.407,83.172Z" fill="#E98862"></path>
      <path d="M556.472,104.552a41.472,41.472,0,0,0,.865,8.507,61.058,61.058,0,0,1-50.479,5.867,82.65,82.65,0,0,0,1.362-16.949c-.007-.381-.013-.768-.026-1.162L488.657,92.2l5.673-12.877,12.283,5.416c-1.472-13.29-1.517-25.314,13.405-25.96.407-.019,1.059-.032,1.9-.045.168,3.55,22.151,3.537,22.616-.084,6.209.007,11.3,1.911,14.251,4.86C568.948,73.675,556.472,91,556.472,104.552Z" fill="#367CFF"></path>
      <path d="M521.916,58.733c.168,3.55,2.1,8.772,8.055,9.165,7.939.523,14.1-5.628,14.561-9.249h-.019C536.7,58.649,526.473,58.662,521.916,58.733Z" fill="#E98862"></path>
      <g>
        <path d="M538.5,50.426c-.007-.117-.007-.233-.007-.35,0-1.177.045-2.459.162-3.856l-1.463-.272L528.324,44.3a37.6,37.6,0,0,1-.11,6.9c-.026.259-.058.525-.1.79a.308.308,0,0,1-.013.071c-.051.349-.11.7-.174,1.048-.039.227-.085.453-.136.68-.052.291-.123.576-.2.861s-.155.563-.246.841-.175.55-.278.815a10.794,10.794,0,0,1-.686,1.521v.006a7.578,7.578,0,0,1-2.019,2.472H540.62C539.6,58.554,538.555,55.519,538.5,50.426Z" fill="#E98862"></path>
        <path d="M526.372,57.845l8.589-6.571-6.746-.07A18.584,18.584,0,0,1,526.372,57.845Z" opacity="0.15"></path>
        <path d="M544.527,40.937c-.716,4.134-2.972,8.049-6.618,9.384-4.329,1.585-7.536,1.692-12.527,1.692-6.811,0-6.586-7.1-6.777-14.261-.192-7.187.379-14.9,3.071-17.4,5.374-5,21.144-1.833,23.062,6.528C545.73,31.2,545.208,37,544.527,40.937Z" fill="#E98862"></path>
        <path d="M514.954,24.507a2.654,2.654,0,0,1-2.025-3.405c.506-1.844,2.869-1.435,2.869-1.435s-2.238-.409-2.238-2.363c0-1.231.946-3.316,3.8-2.124a18.689,18.689,0,0,0,10.069.731,33.437,33.437,0,0,1,4.988-.7l.009,0v0a19.254,19.254,0,0,1,5.7.763c5.189,1.553,13.044,6.207,11.374,16.756C547.639,44.5,542.115,49,539.684,50.446a1.107,1.107,0,0,1-1.629-.619c-.69-2.207-1.879-7.759-1.545-19.208-15.953-.782-20.543-1.02-20.543-1.02s-3.756.141-3.756-2.6A2.42,2.42,0,0,1,514.954,24.507Z" fill="#0f1011"></path>
        <g>
          <circle cx="528.337" cy="36.815" r="0.937" fill="#0f1011"></circle>
          <circle cx="520.939" cy="36.208" r="0.937" fill="#0f1011"></circle>
          <path d="M519.315,34.21h0l2.484-.031a.441.441,0,0,0,0-.881h-.006l-2.484.031a.441.441,0,0,0,.006.881Z" fill="#0f1011"></path>
          <path d="M530.361,35.115a.44.44,0,0,0,.1-.868l-2.449-.59a.441.441,0,1,0-.206.857l2.448.589A.415.415,0,0,0,530.361,35.115Z" fill="#0f1011"></path>
        </g>
        <path d="M533.215,39.109a3.975,3.975,0,1,0,7.923.65,3.909,3.909,0,0,0-3.637-4.287C534.668,35.38,533.394,36.921,533.215,39.109Z" fill="#E98862"></path>
        <g opacity="0.15">
          <path d="M524.175,42.015a.323.323,0,0,0,.1-.632l-1.907-.586,1.334-2.97a.324.324,0,0,0-.591-.266l-1.484,3.305a.325.325,0,0,0,.2.442L524.08,42A.313.313,0,0,0,524.175,42.015Z"></path>
        </g>
        <path d="M527.9,44.2a16.35,16.35,0,0,1-5.887-.482,3.056,3.056,0,0,0,5.887.482Z" fill="#f8fcff"></path>
      </g>
    </g>
  </g>
  <g>
    <g>
      <path d="M568.3,492.023c-6.563-1.884-11.5-7.756-13.467-14.3s-1.271-13.637.646-20.191c1.565-5.348,3.936-10.518,4.52-16.06,1.946-18.454-15.953-37.308-7.53-53.842,2.724-5.346,8-9.525,8.935-15.451.778-4.9-1.636-9.664-2.837-14.479-1.651-6.626-.814-14.146,3.485-19.452s12.423-7.625,18.347-4.227c7.749,4.445,8.42,15.418,6.429,24.125s-5.682,17.666-3.249,26.26c2.319,8.192,9.866,14.361,11.219,22.766,1.125,6.988-2.286,13.8-3.785,20.718-2.355,10.872.042,22.141.145,33.264S588.12,484.755,568.3,492.023Z" fill="#8ddbe0"></path>
      <path d="M558.17,493.08a23.091,23.091,0,0,1-15.616-17.32c-1.285-6.619.292-14.053-3.33-19.74-4.909-7.7-9.943-8.576-16.054-15.367-9.4-10.443-9.726-15.068-9.107-34.408.263-8.179-11.031-17.41-7.054-25.268,3.5-6.923,14.156-6.959,20.2-2.087s8.693,12.681,11.326,19.982,5.95,15.023,12.622,18.986c4,2.376,9.239,3.474,11.45,7.57,1.776,3.291.881,7.307.167,10.978-1.794,9.227-1.345,20.482,6.4,25.811,3.493,2.4,8.068,3.232,10.94,6.352,2.84,3.086,3.3,7.657,3.105,11.845a52.736,52.736,0,0,1-6.486,22.974" fill="#dee8f5"></path>
      <path d="M567.508,499.505A25.482,25.482,0,0,1,565.2,469.97c4.74-7.51,13.574-12.683,15.429-21.369,1.652-7.736-2.93-15.73-1.558-23.52,1.492-8.472,9.318-14.031,15.534-19.976a21.625,21.625,0,0,0,4.128-4.984c2.735-4.921,1.972-10.958,2.9-16.511,1.778-10.633,10.539-20.065,21.176-21.823,9.329-1.541,16.011,3.818,16.011,13.687,0,11.692-8.758,16.7-13.227,22a41.116,41.116,0,0,0-9.581,27.395c.315,11.162,5.067,23.046-.01,32.991-3.726,7.3-11.685,11.19-17.939,16.486a45.6,45.6,0,0,0-15.881,32.512" fill="#f3f5fd"></path>
    </g>
    <rect x="541.34" y="481.173" width="56.255" height="56.255" fill="#0cbc8b"></rect>
    <g opacity="0.42">
      <rect x="541.34" y="492.142" width="56.255" height="10.981" fill="#fff"></rect>
    </g>
  </g>
  <g>
    <path d="M443.746,106.422,428.09,94.908s-68.583,0-102.875,0V21.12H443.746Z" fill="#c1d8ed"></path>
    <rect x="336.618" y="35.923" width="95.725" height="6.587" fill="#fff"></rect>
    <rect x="336.618" y="54.366" width="95.725" height="6.587" fill="#fff"></rect>
    <rect x="336.618" y="72.808" width="95.725" height="6.587" fill="#fff"></rect>
  </g>
  <rect x="278.818" y="139.622" width="105.3" height="5.87" fill="#fff"></rect>
  <rect x="278.818" y="158.877" width="105.3" height="5.87" fill="#fff"></rect>
  <rect x="278.818" y="178.133" width="105.3" height="5.87" fill="#fff"></rect>
</svg>