<?xml version="1.0" encoding="UTF-8"?>
<svg width="66px" height="21px" viewBox="0 0 66 21" version="1.1" xmlns="http://www.w3.org/2000/svg" xmlns:xlink="http://www.w3.org/1999/xlink">
    <!-- Generator: Sketch 55.2 (78181) - https://sketchapp.com -->
    <title>Group 10</title>
    <desc>Created with Sketch.</desc>
    <defs>
        <polygon id="path-1" points="0.6889 0.5204 45.027 0.5204 45.027 11.3744 0.6889 11.3744"></polygon>
    </defs>
    <g id="Page-1" stroke="none" stroke-width="1" fill="none" fill-rule="evenodd">
        <g id="Group-10" transform="translate(-1.000000, 0.000000)">
            <g id="Group-3" transform="translate(22.000000, 4.104700)">
                <mask id="mask-2" fill="white">
                    <use xlink:href="#path-1"></use>
                </mask>
                <g id="Clip-2"></g>
                <path d="M3.8179,5.1944 C3.8179,4.1644 4.4779,3.4024 5.5079,3.4024 C6.6419,3.4024 7.1779,4.1644 7.1779,5.1734 L7.1779,11.0654 L10.3069,11.0654 L10.3069,4.6384 C10.3069,2.3934 9.1539,0.5624 6.5809,0.5624 C5.5289,0.5624 4.2719,1.0354 3.7149,2.0024 L3.7149,0.8294 L0.6889,0.8294 L0.6889,11.0654 L3.8179,11.0654 L3.8179,5.1944 Z M15.2509,4.7234 C15.3129,3.9594 15.9719,2.9904 17.2909,2.9904 C18.7759,2.9904 19.3109,3.9394 19.3529,4.7234 L15.2509,4.7234 Z M19.5789,7.3784 C19.2909,8.1834 18.6519,8.7194 17.5179,8.7194 C16.3019,8.7194 15.2509,7.8944 15.1889,6.7394 L22.3169,6.7394 C22.3369,6.6774 22.3779,6.2044 22.3779,5.7724 C22.3779,2.4754 20.4229,0.5204 17.2499,0.5204 C14.5919,0.5204 12.1429,2.6194 12.1429,5.9164 C12.1429,9.3574 14.6539,11.3744 17.4769,11.3744 C20.0729,11.3744 21.6989,9.8924 22.1929,8.1214 L19.5789,7.3784 Z M22.9339,11.0654 L26.3739,11.0654 C26.9299,10.2214 27.6919,9.0064 28.2479,8.1824 L30.1439,11.0654 L33.8099,11.0654 C32.6359,9.4174 31.2969,7.4814 30.1439,5.8344 L33.6869,0.8294 L30.1849,0.8294 L28.3929,3.6304 L26.5589,0.8294 L22.8719,0.8294 L26.4559,5.9574 L22.9339,11.0654 Z M39.5899,8.4934 C38.4159,8.4934 37.2819,7.6484 37.2819,5.9374 C37.2819,4.2064 38.4159,3.4024 39.5899,3.4024 C40.7859,3.4024 41.8989,4.2064 41.8989,5.9374 C41.8989,7.6684 40.7859,8.4934 39.5899,8.4934 L39.5899,8.4934 Z M39.5899,0.5204 C36.5409,0.5204 34.1529,2.7644 34.1529,5.9374 C34.1529,9.1104 36.5409,11.3744 39.5899,11.3744 C42.6599,11.3744 45.0279,9.1104 45.0279,5.9374 C45.0279,2.7644 42.6599,0.5204 39.5899,0.5204 L39.5899,0.5204 Z" id="Fill-1" fill="#FFFFFF" mask="url(#mask-2)"></path>
            </g>
            <polygon id="Fill-4" fill="#2A85FF" points="18.2790244 15.0405692 9.50802445 20.1045087 9.50802445 20.1045087 9.50685702 9.97018247 9.49685702 9.97595598 0.999415795 5.06995598 9.78041579 0.00024299207 9.78228182 0.00016564177 18.2745269 4.90316564 18.2785269 4.90085624"></polygon>
            <g id="Group-9" transform="translate(22.000000, 16.104700)" fill="#2A85FF">
                <path d="M3.0362,1.3169 C2.9712,0.9559 2.6792,0.4939 1.9082,0.4939 C1.3162,0.4939 0.8022,0.9029 0.8022,1.4869 C0.8022,1.9439 1.1202,2.2929 1.6422,2.3929 L2.0652,2.4709 C2.2702,2.5109 2.3962,2.6239 2.3962,2.7809 C2.3962,2.9719 2.2312,3.1029 1.9612,3.1029 C1.5382,3.1029 1.3462,2.8549 1.3202,2.5719 L0.6892,2.7239 C0.7332,3.1599 1.0982,3.7119 1.9522,3.7119 C2.6882,3.7119 3.0932,3.2209 3.0932,2.7369 C3.0932,2.2969 2.7882,1.9179 2.2002,1.8089 L1.7862,1.7309 C1.5732,1.6919 1.4812,1.5829 1.4812,1.4349 C1.4812,1.2649 1.6472,1.1039 1.9042,1.1039 C2.2792,1.1039 2.3962,1.3479 2.4182,1.4909 L3.0362,1.3169 Z M4.8802,3.7169 C5.5592,3.7169 6.1032,3.3079 6.1032,2.5329 L6.1032,0.5599 L5.4162,0.5599 L5.4162,2.4759 C5.4162,2.8499 5.2062,3.0379 4.8802,3.0379 C4.5532,3.0379 4.3442,2.8499 4.3442,2.4759 L4.3442,0.5599 L3.6562,0.5599 L3.6562,2.5329 C3.6562,3.3079 4.2002,3.7169 4.8802,3.7169 L4.8802,3.7169 Z M6.8672,3.6469 L7.5632,3.6469 L7.5632,0.5599 L6.8672,0.5599 L6.8672,3.6469 Z M10.6242,1.2169 L10.6242,0.5599 L8.0342,0.5599 L8.0342,1.2169 L8.9832,1.2169 L8.9832,3.6469 L9.6712,3.6469 L9.6712,1.2169 L10.6242,1.2169 Z M13.0632,3.6469 L13.0632,2.9939 L11.7912,2.9939 L11.7912,2.4009 L12.9412,2.4009 L12.9412,1.7969 L11.7912,1.7969 L11.7912,1.2079 L13.0582,1.2079 L13.0582,0.5599 L11.1042,0.5599 L11.1042,3.6469 L13.0632,3.6469 Z" id="Fill-7"></path>
            </g>
        </g>
    </g>
</svg>