<svg id="Layer_3" data-name="Layer 3" xmlns="http://www.w3.org/2000/svg" viewBox="0 0 713.721 862.214">
  <g>
    <g>
      <g>
        <rect x="61.51" y="1.095" width="651.115" height="527.262" rx="34.903" fill="#fff"></rect>
        <path d="M677.722,529.453H96.413a36.039,36.039,0,0,1-36-36V36a36.039,36.039,0,0,1,36-36H677.722a36.04,36.04,0,0,1,36,36V493.454A36.04,36.04,0,0,1,677.722,529.453ZM96.413,2.191A33.847,33.847,0,0,0,62.605,36V493.454a33.847,33.847,0,0,0,33.808,33.808H677.722a33.846,33.846,0,0,0,33.808-33.808V36A33.846,33.846,0,0,0,677.722,2.191Z" fill="#292a2e"></path>
      </g>
      <rect x="612.279" y="95.882" width="62.937" height="62.937" rx="13.622" fill="#367cff" opacity="0.2"></rect>
      <rect x="613.524" y="175.379" width="62.937" height="62.937" rx="13.759" fill="#367cff" opacity="0.2"></rect>
      <rect x="613.524" y="263.919" width="62.937" height="62.937" rx="13.759" fill="#367cff" opacity="0.2"></rect>
      <rect x="612.279" y="347.929" width="62.937" height="62.937" rx="13.759" fill="#367cff" opacity="0.2"></rect>
      <g opacity="0.15">
        <rect x="355.639" y="95.882" width="62.937" height="62.937" rx="13.622" fill="#367cff"></rect>
        <rect x="270.092" y="95.882" width="62.937" height="62.937" rx="13.622" fill="#367cff"></rect>
        <rect x="185.79" y="95.882" width="62.937" height="62.937" rx="13.622" fill="#367cff"></rect>
        <rect x="100.243" y="95.882" width="62.937" height="62.937" rx="13.622" fill="#367cff"></rect>
        <rect x="441.185" y="95.882" width="62.937" height="62.937" rx="13.622" fill="#367cff"></rect>
        <rect x="526.732" y="95.882" width="62.937" height="62.937" rx="13.622" fill="#367cff"></rect>
        <rect x="356.883" y="175.379" width="62.937" height="62.937" rx="13.759" fill="#367cff"></rect>
        <rect x="442.43" y="175.379" width="62.937" height="62.937" rx="13.759" fill="#367cff"></rect>
        <rect x="527.977" y="175.379" width="62.937" height="62.937" rx="13.759" fill="#367cff"></rect>
        <rect x="100.243" y="175.379" width="62.937" height="62.937" rx="13.759" fill="#367cff"></rect>
        <rect x="185.79" y="175.379" width="62.937" height="62.937" rx="13.759" fill="#367cff"></rect>
        <rect x="271.336" y="175.379" width="62.937" height="62.937" rx="13.759" fill="#367cff"></rect>
        <rect x="356.883" y="263.919" width="62.937" height="62.937" rx="13.759" fill="#367cff"></rect>
        <rect x="442.43" y="263.919" width="62.937" height="62.937" rx="13.759" fill="#367cff"></rect>
        <rect x="527.977" y="263.919" width="62.937" height="62.937" rx="13.759" fill="#367cff"></rect>
        <rect x="100.243" y="263.919" width="62.937" height="62.937" rx="13.759" fill="#367cff"></rect>
        <rect x="185.79" y="263.919" width="62.937" height="62.937" rx="13.759" fill="#367cff"></rect>
        <rect x="271.336" y="263.919" width="62.937" height="62.937" rx="13.759" fill="#367cff"></rect>
        <rect x="356.883" y="349.173" width="62.937" height="62.937" rx="13.759" fill="#367cff"></rect>
        <rect x="441.185" y="347.929" width="62.937" height="62.937" rx="13.759" fill="#367cff"></rect>
        <rect x="526.732" y="347.929" width="62.937" height="62.937" rx="13.759" fill="#367cff"></rect>
        <rect x="100.243" y="349.173" width="62.937" height="62.937" rx="13.759" fill="#367cff"></rect>
        <rect x="185.79" y="349.173" width="62.937" height="62.937" rx="13.759" fill="#367cff"></rect>
        <rect x="271.336" y="349.173" width="62.937" height="62.937" rx="13.759" fill="#367cff"></rect>
        <rect x="355.639" y="426.394" width="62.937" height="62.937" rx="13.759" fill="#367cff"></rect>
        <rect x="98.998" y="426.394" width="62.937" height="62.937" rx="13.759" fill="#367cff"></rect>
        <rect x="184.545" y="426.394" width="62.937" height="62.937" rx="13.759" fill="#367cff"></rect>
        <rect x="270.092" y="426.394" width="62.937" height="62.937" rx="13.759" fill="#367cff"></rect>
      </g>
      <path d="M712.625,36V58.377H61.513V36a34.9,34.9,0,0,1,34.9-34.91h581.31A34.906,34.906,0,0,1,712.625,36Z" fill="#292a2e"></path>
      <rect x="277.054" y="433.356" width="49.013" height="49.013" rx="7.591" fill="#fff"></rect>
      <g>
        <path d="M145.714,329.942l-41.768-7.558a4.537,4.537,0,0,1-3.656-5.272l6.459-35.691,12.856-8.56,35.283,6.386a4.536,4.536,0,0,1,3.656,5.271l-7.559,41.768A4.535,4.535,0,0,1,145.714,329.942Z" fill="#367cff"></path>
        <polygon points="119.605 272.861 106.749 281.421 117.728 283.598 119.605 272.861" fill="#fffffa" opacity="0.29"></polygon>
        <g opacity="0.88">
          <path d="M148.979,305.589a.6.6,0,0,1-.126-.01l-39.084-7.228a.633.633,0,0,1,.23-1.245l39.084,7.228a.633.633,0,0,1-.1,1.255Z" fill="#fff"></path>
          <path d="M147.578,313.787a.686.686,0,0,1-.127-.01l-39.083-7.228a.634.634,0,1,1,.23-1.246l39.083,7.228a.633.633,0,0,1-.1,1.256Z" fill="#fff"></path>
          <path d="M124.647,317.122a.6.6,0,0,1-.126-.01l-17.336-3.206a.634.634,0,1,1,.23-1.246l17.336,3.207a.633.633,0,0,1-.1,1.255Z" fill="#fff"></path>
        </g>
        <path d="M149.165,298.927a2.592,2.592,0,0,1-.461-.042l-8.457-1.542a2.573,2.573,0,0,1-2.068-3.006l1.421-8.98a2.582,2.582,0,0,1,2.966-2.077l8.483,1.45a2.572,2.572,0,0,1,2.1,3.006l-1.447,9.079A2.587,2.587,0,0,1,149.165,298.927Zm-7.03-14.684a1.583,1.583,0,0,0-1.55,1.284l-1.421,8.98a1.576,1.576,0,0,0,1.263,1.853l8.457,1.542a1.584,1.584,0,0,0,1.829-1.258l1.449-9.086a1.575,1.575,0,0,0-1.282-1.843l-8.483-1.45A1.553,1.553,0,0,0,142.135,284.243Z" fill="#fff"></path>
      </g>
      <path d="M291.5,474.04c-.088,0-.177,0-.266-.013a2.944,2.944,0,0,1-2.077-1.15l-8.885-11.686a2.943,2.943,0,1,1,4.686-3.562l6.936,9.123,26.62-24.3a2.943,2.943,0,1,1,3.968,4.348l-29,26.467A2.943,2.943,0,0,1,291.5,474.04Z" fill="#367cff"></path>
      <g>
        <path d="M678.494,136.863l-35.208,23.709a4.534,4.534,0,0,1-6.3-1.229l-20.26-30.084,3.245-15.1L649.716,94.13a4.537,4.537,0,0,1,6.3,1.229l23.709,35.207A4.536,4.536,0,0,1,678.494,136.863Z" fill="#0cbc8b"></path>
        <polygon points="619.975 114.158 616.73 129.259 626.117 123.163 619.975 114.158" fill="#fffffa" opacity="0.29"></polygon>
        <g opacity="0.88">
          <path d="M663.852,117.131a.639.639,0,0,1-.1.081L630.7,139.286a.633.633,0,0,1-.7-1.053l33.053-22.074a.633.633,0,0,1,.8.972Z" fill="#fff"></path>
          <path d="M668.564,123.984a.639.639,0,0,1-.1.081l-33.053,22.074a.633.633,0,0,1-.7-1.053l33.053-22.074a.633.633,0,0,1,.8.972Z" fill="#fff"></path>
          <path d="M654.455,142.365a.639.639,0,0,1-.1.081L639.7,152.237a.633.633,0,1,1-.7-1.053l14.661-9.791a.633.633,0,0,1,.8.972Z" fill="#fff"></path>
        </g>
      </g>
    </g>
    <path d="M686.558,862.214H36.139a.7.7,0,1,1,0-1.4H686.558a.7.7,0,1,1,0,1.4Z" fill="#292a2e"></path>
    <g>
      <g>
        <path d="M568.058,818.043s-4.515,23.4-26.429,24.708-17.161,18.761-17.161,18.761h83.739V819.675Z" fill="#367cff"></path>
        <path d="M593.887,391.112s-.263-7.035-.208,8.924c.208,59.529,3.241,127.525,5.765,167.315C603.5,631.315,611.9,832.979,611.9,832.979l-59.025-.462L503.545,388.694Z" fill="#262626"></path>
        <path d="M530.573,462.093s-2.28,43.2-2.7,53.342c-.978,23.455-1.854,47.892-1.854,75.425l-8.138-72.332S524.226,495.907,530.573,462.093Z" fill="#0a0a0a"></path>
        <path d="M460.1,818.043s-4.515,23.4-26.428,24.708-17.161,18.761-17.161,18.761h83.739V819.675Z" fill="#367cff"></path>
        <path d="M443.453,395.735s-5.874,205.456-5.159,215.4l8.463,220.3,60.117,1L511.6,601.1s.72-63.816,16.139-123.074a459.358,459.358,0,0,0,14.168-92.937h0Z" fill="#262626"></path>
      </g>
      <path d="M594.484,391.106l.18.01S594.534,387.646,594.484,391.106Z" fill="#333"></path>
      <g>
        <g>
          <path id="sk" d="M480.242,216.089c.179-.023,2.158,32.824,40.317,29.96C546.976,244.07,556.4,216.042,557,216.042c-2.848-.6-7.644-1.485-8.909-2.16-4.16-2.235-10.085-4.561-11.426-12.639-.772-4.656.539-28.475.135-33.186l-39.772,9.051c.567,9.949,4.532,33.013-9.367,37.1C485.349,214.878,482.857,215.5,480.242,216.089Z" fill="#E98862"></path>
          <g>
            <path d="M498.147,192.625c16.014,1.236,36.572-5.559,40.442-26.929l3.493-19.282c3.87-21.369-4.216-40.725-24.336-44.369h0c-20.121-3.645-38.3,10.955-42.168,32.324l-1.546,8.536a65.51,65.51,0,0,0-.835,8.888c-.259,7.87-.622,19.84,3.272,28.632C480.145,188.726,487.916,191.836,498.147,192.625Z" fill="#E98862"></path>
            <path d="M534.06,100.95a74.536,74.536,0,0,0-19.606-3.336,7.347,7.347,0,0,0-4.2-5.34c-3.518-1.374-7.816.839-10.675,5.105a12.724,12.724,0,0,0-6.6-5.521c-7.877-2.452-8.268,8.863-8.268,8.863s-12.489-12.324-12.879,3.394c-.472,19.018,3.022,24.6,5.571,26,5.036,2.781,8.785,2.31,10.778,6.4,6.035,12.388.12,47.282,7.1,51.651,10.7,6.693,32.608,6.924,39.724,6.416,2.737-.2,5.3-3.369,6.451-5.858,3.722-8.039,12.023-26.263,14.333-33.8C560.061,141.021,559.74,109.335,534.06,100.95Z" fill="#0c0c0c"></path>
            <path d="M490.508,175.705c6.178-.67,10.469-7.823,9.8-14s-6.048-9.041-12.226-8.37l-2.734,4.485-.149,18.463Z" fill="#E98862"></path>
          </g>
        </g>
        <path d="M435.707,282.8c1.135,13.332,6.655,96.509,7.746,112.931H593.826c.849-14.811,4.663-79.576,7.885-108.539,3.075-27.638,9.107-41.475,4.685-49.646-7.226-13.354-26.971-21.07-40.435-22.893-8.222-1.113-20.588-1.911-20.588-1.911h-57.9c-5.5,0-37.565,2.588-44.652,8.046C430.428,230.337,433.3,254.55,435.707,282.8Z" fill="#367cff"></path>
        <path d="M433.631,266.1a.5.5,0,0,1-.5-.472l-1.213-21.17a.5.5,0,0,1,.47-.528.506.506,0,0,1,.528.47l1.213,21.171a.5.5,0,0,1-.471.528Z" fill="#0c0c0c"></path>
        <path d="M626.335,394.863a27.454,27.454,0,0,0,25.755-36.95c-1.553-4.213-37.973-100.656-44.906-118.526l-51.339,20.8c3.9,10.047,18.023,48.131,29.37,78.811l-18.852-2.049-5.934,54.585,62.936,3.167A27.473,27.473,0,0,0,626.335,394.863Z" fill="#367cff"></path>
        <rect x="541.669" y="341.253" width="108.028" height="1" transform="translate(233.762 925.402) rotate(-88.04)" fill="#0c0c0c"></rect>
        <g>
          <g>
            <path d="M325.809,172.6l-45.525,20.08a4.064,4.064,0,0,1-5.357-2.078l-16.862-38.231,6.581-16.056,37.805-16.675a4.062,4.062,0,0,1,5.356,2.078l20.08,45.526A4.063,4.063,0,0,1,325.809,172.6Z" fill="#0cbc8b"></path>
            <polygon points="264.646 136.317 258.065 152.373 269.654 147.492 264.646 136.317" fill="#fffffa" opacity="0.29"></polygon>
            <g opacity="0.88">
              <path d="M309.12,140.559a.692.692,0,0,1-.125.07l-40.926,17.864a.712.712,0,0,1-.57-1.3l40.927-17.864a.712.712,0,0,1,.694,1.234Z" fill="#fff"></path>
              <path d="M312.58,148.3a.683.683,0,0,1-.124.07l-40.927,17.864a.711.711,0,0,1-.569-1.3l40.926-17.864a.711.711,0,0,1,.694,1.234Z" fill="#fff"></path>
              <path d="M316.433,156.809a.683.683,0,0,1-.124.07l-40.927,17.864a.711.711,0,0,1-.569-1.3l40.926-17.864a.711.711,0,0,1,.694,1.234Z" fill="#fff"></path>
              <path d="M297.189,174.342a.759.759,0,0,1-.125.07l-18.153,7.923a.712.712,0,0,1-.57-1.3l18.154-7.923a.712.712,0,0,1,.694,1.234Z" fill="#fff"></path>
            </g>
          </g>
          <path d="M288.182,169.111a4.334,4.334,0,0,0-5.8-2.439,4.5,4.5,0,0,0-2.224,5.723l1.441,5.97a5.318,5.318,0,0,1-3.305,6.229h0a5.318,5.318,0,0,1-6.513-2.395s-8.979-18.967-9.149-19.739c-1.473,1.437-4.042,4.972-4.569,7.637-.019.014,2.6,21.3,4.064,22.8l15.191,23.43c6.21,6.363,27.055-4.224,27.055-4.224Z" fill="#E98862"></path>
        </g>
        <path d="M350.6,344.058a29.5,29.5,0,0,1-25.273-14.287L259.934,221.142l50.549-30.427L360.192,273.3l82.632-52.5,35.009,46.94-111.267,71.63A29.5,29.5,0,0,1,350.6,344.058Z" fill="#367cff"></path>
        <path d="M436.545,294.787a.5.5,0,0,1-.23-.944l14.278-7.368a.5.5,0,0,1,.459.889l-14.278,7.367A.5.5,0,0,1,436.545,294.787Z" fill="#0c0c0c"></path>
        <path d="M479.5,215.862l7.089-11.081a3.432,3.432,0,0,1,2.892-1.584h53.432a3.432,3.432,0,0,1,2.552,1.137l10.379,11.528Z" fill="#367cff"></path>
      </g>
    </g>
    <g>
      <rect x="75.712" y="659.194" width="1.737" height="195.977" transform="translate(-81.915 12.824) rotate(-6.245)" fill="#292a2e"></rect>
      <rect x="65.475" y="795.824" width="104.283" height="1.737" transform="translate(-686.865 833.592) rotate(-84.228)" fill="#292a2e"></rect>
      <rect x="62.212" y="835.943" width="77.82" height="25.255" fill="#292a2e"></rect>
      <rect x="62.212" y="835.943" width="77.82" height="25.255" fill="#fff" opacity="0.2"></rect>
      <ellipse cx="144.556" cy="757.55" rx="44.397" ry="53.048" transform="translate(-547.695 417.597) rotate(-53.042)" fill="#0cbc8b"></ellipse>
      <ellipse cx="144.556" cy="757.55" rx="44.397" ry="53.048" transform="translate(-547.695 417.597) rotate(-53.042)" fill="#fff" opacity="0.2"></ellipse>
      <path d="M186.943,789.444a35.8,35.8,0,0,1-3.233,3.746c-16.228,10.368-40.181,8.736-59.183-5.564-23.409-17.611-30.435-47.774-15.691-67.367a37.439,37.439,0,0,1,3.225-3.746c16.236-10.375,40.181-8.735,59.191,5.557C194.66,739.689,201.686,769.852,186.943,789.444Z" fill="#fff" opacity="0.5"></path>
      <ellipse cx="50.43" cy="678.94" rx="53.048" ry="45.682" transform="translate(-404.356 172.312) rotate(-37.665)" fill="#0cbc8b"></ellipse>
      <path d="M71,709.969c-17.961,13.873-40.787,15.987-57.333,6.956a39.944,39.944,0,0,1-5.223-5.572C-6.98,691.387-.677,660.68,22.514,642.782c17.961-13.865,40.787-15.987,57.325-6.964a39.7,39.7,0,0,1,5.23,5.58C100.489,661.364,94.186,692.071,71,709.969Z" fill="#fff" opacity="0.2"></path>
    </g>
  </g>
</svg>