<svg xmlns="http://www.w3.org/2000/svg" viewBox="0 0 400 400">
  
<g transform="matrix(2,0,0,2,0,0)"><g>
    <path d="M76.17,121.61l-19.6-44a4,4,0,0,0-5.33-2L42.5,79.45a4,4,0,0,0-2,5.34C64.39,138.57,62.74,135,62.93,135a.19.19,0,0,0,.17-.27L40.79,84.63a3.67,3.67,0,0,1,1.86-4.84l8.74-3.89a3.67,3.67,0,0,1,4.84,1.86C76.68,123.6,75.77,121.87,76,121.87A.19.19,0,0,0,76.17,121.61Z" style="fill: #3B29AB"></path>
    <path d="M85.5,142.57l-3-6.85a.19.19,0,0,0-.34.15l3,6.86a3.67,3.67,0,0,1-1.86,4.84l-8.74,3.89a3.67,3.67,0,0,1-4.84-1.85l-2.79-6.28a.19.19,0,0,0-.35.16l2.8,6.27a4,4,0,0,0,5.33,2.05l8.75-3.9A4,4,0,0,0,85.5,142.57Z" style="fill: #3B29AB"></path>
    <g>
      <path d="M109.8,135.77,102,139.26a3.66,3.66,0,0,1-4.83-1.86l-4.39-9.85a.19.19,0,0,0-.35.15l4.39,9.85a4,4,0,0,0,5.34,2l7.83-3.48A.19.19,0,0,0,109.8,135.77Z" style="fill: #3B29AB"></path>
      <path d="M113,130.59l-5-11.26a.19.19,0,0,0-.34.16l5,11.26A.19.19,0,0,0,113,130.59Z" style="fill: #3B29AB"></path>
    </g>
    <path d="M100.61,102.75,94.05,88a4,4,0,0,0-5.33-2L80,89.87a4,4,0,0,0-2,5.33l8,18.1a.19.19,0,0,0,.35-.15l-8.06-18.1a3.66,3.66,0,0,1,1.86-4.84l8.74-3.89a3.66,3.66,0,0,1,4.84,1.86l6.55,14.72A.19.19,0,0,0,100.61,102.75Z" style="fill: #3B29AB"></path>
    <path d="M131.07,97.41,125.81,85.6a4.05,4.05,0,0,0-5.33-2l-8.75,3.9a4,4,0,0,0-2,5.33l4.76,10.7a.19.19,0,0,0,.34-.16L110,92.63a3.67,3.67,0,0,1,1.86-4.84l8.74-3.89a3.67,3.67,0,0,1,4.84,1.86l5.25,11.8C130.83,97.78,131.17,97.63,131.07,97.41Z" style="fill: #3B29AB"></path>
    <path d="M167.72,106l-8.16-18.32a.19.19,0,1,0-.34.15l8.16,18.33a3.66,3.66,0,0,1-1.86,4.83l-7.36,3.28a.19.19,0,0,0,.15.35l7.36-3.28A4,4,0,0,0,167.72,106Z" style="fill: #3B29AB"></path>
    <path d="M152.32,72.31l-3.42-7.67a.19.19,0,0,1,.35-.15l3.42,7.67A.19.19,0,0,1,152.32,72.31Z" style="fill: #3B29AB"></path>
    <path d="M145,55l-6.25-14a4,4,0,0,0-5.33-2l-8.75,3.9a4,4,0,0,0-2,5.33c10.64,23.91,9.93,22.44,10.11,22.44a.19.19,0,0,0,.17-.27L123,48a3.66,3.66,0,0,1,1.86-4.84l8.74-3.89a3.67,3.67,0,0,1,4.84,1.85c6.65,14.91,6.22,14.14,6.42,14.14A.19.19,0,0,0,145,55Z" style="fill: #3B29AB"></path>
    <path d="M185.46,103.9,151.82,28.34a15.08,15.08,0,0,0-19.9-7.63L70.34,48.12A16.94,16.94,0,0,0,39.39,61.9l-8.7,3.88a15.06,15.06,0,0,0-7.64,19.89l33.64,75.55a15.06,15.06,0,0,0,19.9,7.64l28.65-12.76a.18.18,0,0,0,.1-.24.19.19,0,0,0-.25-.1L76.44,168.52A14.7,14.7,0,0,1,57,161.07L23.4,85.52a14.69,14.69,0,0,1,7.45-19.4L132.07,21.05a14.71,14.71,0,0,1,19.43,7.5l33.61,75.5a14.71,14.71,0,0,1-7.44,19.4l-53.94,24a.19.19,0,0,0,.08.36c.1,0,.08,0,4.52-2A26.45,26.45,0,0,0,151.59,161c19.18.5,32.55-19,24.66-36.48l1.57-.7A15.09,15.09,0,0,0,185.46,103.9ZM39.74,61.75a16.46,16.46,0,0,1-1-10.1l15.65,3.58Zm15.62-7L63.54,41A16.46,16.46,0,0,1,70,48.28Zm73.32,90.88,22.57-10-18.78,15.92A25.43,25.43,0,0,1,128.68,145.67Zm4,6.15,19.37-16.42L155,160.47A26.25,26.25,0,0,1,132.72,151.82Zm42-4L152.59,135l23.32-10.38A25.37,25.37,0,0,1,174.69,147.82Z" style="fill: #3B29AB"></path>
    <path d="M188.78,57.13l-1.73,22.44A7.8,7.8,0,0,1,180,86.76a135.17,135.17,0,0,1-20.22-.27c-2,6.82-2.52,12.59-3,20.31-9.15-2.1-17.71-3.1-25.29-2.33a118.42,118.42,0,0,1-.28-23.81l-5.58,1.66c-11.35-1-20.45-3.21-31.82-6a15,15,0,0,1,2.1-12c14.38,3.63,26.87,6.17,41.62,6.31l6.25,17,11.94-14.8a185.54,185.54,0,0,0,19.2.63l1.4-17.45A32.74,32.74,0,0,1,188.78,57.13Z" style="fill: #FFD0C7"></path>
    <path d="M82.28,136a.19.19,0,0,1,0-.38A.19.19,0,0,1,82.28,136Z" style="fill: #3B29AB"></path>
    <path d="M95.76,74.63a.75.75,0,0,0,1.06.09.76.76,0,0,0,.1-1.06.77.77,0,0,0-1.07-.1A.76.76,0,0,0,95.76,74.63Z" style="fill: #3B29AB"></path>
    <path d="M113.75,71.57a.77.77,0,0,0,1.07.1.76.76,0,0,0,.09-1.07.76.76,0,0,0-1.16,1Z" style="fill: #3B29AB"></path>
    <path d="M128,80.37a.75.75,0,1,0,1.15-1,.75.75,0,1,0-1.15,1Z" style="fill: #3B29AB"></path>
    <path d="M161.53,83.18a.75.75,0,0,0,1.15-1,.75.75,0,1,0-1.15,1Z" style="fill: #3B29AB"></path>
    <path d="M184.06,77.57a.75.75,0,1,0,.09-1.06A.75.75,0,0,0,184.06,77.57Z" style="fill: #3B29AB"></path>
    <path d="M140.6,88.89a.75.75,0,0,0,1.06.09.76.76,0,0,0,.09-1.07.75.75,0,0,0-1.06-.09A.76.76,0,0,0,140.6,88.89Z" style="fill: #3B29AB"></path>
    <path d="M145.82,89.43a.76.76,0,1,0,.09-1.07A.76.76,0,0,0,145.82,89.43Z" style="fill: #3B29AB"></path>
    <path d="M152.9,102.14a.76.76,0,1,0,.09-1.07A.76.76,0,0,0,152.9,102.14Z" style="fill: #3B29AB"></path>
    <path d="M133.5,100.3a.75.75,0,0,0,1.06.09.76.76,0,0,0,.09-1.07.75.75,0,0,0-1.06-.09A.76.76,0,0,0,133.5,100.3Z" style="fill: #3B29AB"></path>
    <path d="M177.81,59.77a.76.76,0,0,0,1.07.09A.75.75,0,0,0,179,58.8a.76.76,0,1,0-1.16,1Z" style="fill: #3B29AB"></path>
    <path d="M19.79,92.44,9.2,88.31a.19.19,0,0,0-.24.11L4.82,99a.19.19,0,0,0,.36.14L9.14,89l9.09,20.71a.19.19,0,0,0,.35-.15L9.49,88.83l10.17,4A.19.19,0,0,0,19.79,92.44Z" style="fill: #3B29AB"></path>
    <path d="M181.62,151.3a2.68,2.68,0,1,1,4.95-.08A2.69,2.69,0,0,1,181.62,151.3Zm1.54-3.18a2.3,2.3,0,1,0,3,1.2A2.3,2.3,0,0,0,183.16,148.12Z" style="fill: #3B29AB"></path>
    <path d="M192.51,156.16a2.68,2.68,0,1,1,2.46-3.74A2.67,2.67,0,0,1,192.51,156.16Zm0-5a2.3,2.3,0,1,0,2.12,1.39A2.31,2.31,0,0,0,192.5,151.18Z" style="fill: #3B29AB"></path>
    <path d="M185.13,159.25l5.94-15a.19.19,0,1,1,.35.14l-5.94,15A.19.19,0,0,1,185.13,159.25Z" style="fill: #3B29AB"></path>
    <path d="M171.33,43.54l1.84-4.73L168.46,37a.18.18,0,0,1-.1-.24l1.83-4.74-4.77-1.93a.18.18,0,0,1-.11-.24l1.84-4.74-4.87-1.89a.19.19,0,0,1,.14-.35l5,2a.19.19,0,0,1,.11.25l-1.84,4.73,4.78,1.93a.19.19,0,0,1,.1.24l-1.83,4.74,4.7,1.77a.19.19,0,0,1,.11.25l-1.91,4.91A.19.19,0,0,1,171.33,43.54Z" style="fill: #3B29AB"></path>
    <path d="M173.41,35.28l1.84-4.74-4.7-1.77a.18.18,0,0,1-.11-.25l1.84-4.73-4.78-1.93a.2.2,0,0,1-.11-.25l1.84-4.73L164.36,15a.19.19,0,0,1,.14-.35l5,2a.18.18,0,0,1,.11.24l-1.84,4.74,4.78,1.93a.19.19,0,0,1,.11.24l-1.84,4.73,4.7,1.78a.18.18,0,0,1,.11.24l-1.91,4.91A.19.19,0,1,1,173.41,35.28Z" style="fill: #3B29AB"></path>
    <path d="M105.74,11.64l-6.31,2.92-2.92-6.3a.19.19,0,1,0-.34.16l2.92,6.3-6.3,2.93a.19.19,0,1,0,.15.34l6.31-2.93,2.92,6.31a.19.19,0,0,0,.34-.16l-2.92-6.3,6.3-2.93A.19.19,0,1,0,105.74,11.64Z" style="fill: #3B29AB"></path>
    <path d="M39.58,155.71l-2.64-5.81a.19.19,0,0,1,.19-.27l6.35.63a.18.18,0,0,1,.13.29l-3.71,5.19A.18.18,0,0,1,39.58,155.71ZM37.42,150l2.36,5.21,3.34-4.65Z" style="fill: #3B29AB"></path>
    <path d="M194.23,43.59c-.31-.33-1-.11-2.15.61.5-.69,1-1.38,1.37-2a.47.47,0,0,0,0-.62c-.81-.72-3.49,2.08-4.23,2.87.53-1.14.52-1.47.31-1.63s-.65,0-2,1.18a25.48,25.48,0,0,0-3.93,4.74.47.47,0,0,1-.35.17c-.66-.14-1.17-3-1.65-4.25-.23-.57-.67-1.51-1.21-1.41-.33.06-.7.46-.65,3a79.18,79.18,0,0,1-.85,9.4c-.83,0-1.67.08-2.5.17a.17.17,0,0,0-.19.17l-1.38,17.28c-23.73.39-24.66-2.07-25.11-3.25a10.55,10.55,0,0,1-.54-4.6c.6-3.1,5.29-6.56,5.34-6.6s.08-.15,0-.65c-.7-3.47-1.42-7.05-4.15-9.38a.18.18,0,0,0-.24,0,27.07,27.07,0,0,0-5.56,6.38c-1.37,2.23-3.68,6.22-2.24,8.24a3.7,3.7,0,0,0,3,1.25c-.23.69-.88,2.68-1.28,4.47-.28,1.26-1.66,1.31-5,1.27-16.43-.14-26.95-2.38-42.93-6.31a.19.19,0,0,0-.21.08l-.34.56a78.2,78.2,0,0,0-8.63-1.49c-2.78-.18-4,0-4.55,1.66a2,2,0,0,0-1.31,1.63,2.12,2.12,0,0,0-1.18,1.5c-1.35,0-2.8,0-3.87,0-1.4.09-2.39.56-2.4,1.13,0,.29.21.54.64.75l-32-2a.27.27,0,0,0,0,.53L81.69,72a7.77,7.77,0,0,0,4.24,2.75,16.82,16.82,0,0,0,7.42.37c.07.41.15.81.26,1.22a.19.19,0,0,0,.13.14c14.67,3.61,23.64,5.69,37.07,6.39a122.1,122.1,0,0,0,.7,23.45,197.68,197.68,0,0,0-26.83-4.26A10.06,10.06,0,0,0,97.87,104a355.8,355.8,0,0,0-27.79,22.68.2.2,0,0,0,0,.24c.25.41.51.82.78,1.24-5.12,4.91-19.36,14.25-18.57,16s9.53-.61,14.63-.61a14.05,14.05,0,0,0,4.27-.62c1.8-.73,4-4.3,6.61-6.69.64.59,1.31,1.17,2,1.74a.2.2,0,0,0,.25,0,194.71,194.71,0,0,1,25.14-18.68,91.62,91.62,0,0,1,17,3.28q-3.86,2.79-7.41,5.85a17.18,17.18,0,0,0-5.29,8.18,196.84,196.84,0,0,0-6.19,30.14.19.19,0,0,0,.12.2c.81.28,1.62.54,2.44.78-1,7-6.41,23.15-4.71,24s7.17-6.41,11.15-9.53a13.81,13.81,0,0,0,3-3.11c1-1.67.52-6,1.06-9.42,1,.1,2.11.18,3.17.2a.19.19,0,0,0,.19-.16,140.47,140.47,0,0,1,6.2-28.14c26.1-12.4,24-11.39,24.47-11.64,12.36-6.72,6.94-22.3,6.62-23.2.48-8,1.15-14.2,2.93-20.08A136.3,136.3,0,0,0,180,87a8,8,0,0,0,7.25-7.37L189,57.14a.2.2,0,0,0-.13-.19c-.26-.07-1.09-.32-2.52-.61,0-.86.08-1.54.12-2.13a12.82,12.82,0,0,1,3.3-5c.1-.1,3.52-3.77,4.48-5A.48.48,0,0,0,194.23,43.59ZM180,46.28c0-2.5.33-2.61.35-2.61s.44.3.79,1.18c.56,1.42,1,4.36,2,4.49a37.25,37.25,0,0,0-3.54,6.34h-.42A74.8,74.8,0,0,0,180,46.28ZM155.34,73,144,87c.79-6.31,1.77-12.35,2.45-15.2,3.3,5.33,3.06,5,3.21,5s-.2.36,3.6-4.22C153.87,72.77,154.55,72.9,155.34,73Zm-5.71-2.15c.45.6,1.33,1.19,3.24,1.68l-3.16,3.8-3-4.8A6.77,6.77,0,0,0,149.63,70.86Zm-4.58-4.54,1.9-1.81a.19.19,0,0,0-.18-.3s-3.14.59-4.25-1,.39-4.57,1.39-6.25c1.32-2.21,2.59-3.24,3.58-2.9,1.2.41,1.87,2.68,1.65,4.36-.07.58.3,1,1.39.29,1.53-1,2.33,1.6-.6,2.71-.49.19-.94,1.62-1.07,2.2a12.89,12.89,0,0,0,.56,6.9,5.27,5.27,0,0,1-5.65-.39C144.34,69.63,144.12,69.37,145.05,66.32Zm-1.6,4.06a5.62,5.62,0,0,0,2.56,1.1l-4,4.36-1.95-5A7.75,7.75,0,0,0,143.45,70.38Zm-3.81.45,2.11,5.43a.2.2,0,0,0,.32.06L146,72c-.67,2.94-1.61,8.75-2.37,14.84l-5.89-16ZM93.29,74.76A15.88,15.88,0,0,1,86,74.4c-2.32-.6-4.26-2.43-4.15-3,0-.18.43-.15.57-.13a16.12,16.12,0,0,1,4.21,1.43.19.19,0,0,0,.17-.34c-3.06-1.6-6.57-1.83-10-2.17-2.36-.23-3-.73-3-1s.73-.68,2-.76a68.22,68.22,0,0,1,7.39.12c.24,0,.29-.35,0-.38-.47,0-1.75-.11-3.19-.14.39-1.22,1.12-1.57,4-1.3a.2.2,0,0,0,.21-.17.19.19,0,0,0-.17-.21,8.94,8.94,0,0,0-2.81,0c.31-1.09,1.15-1.65,4.14-1.3a.19.19,0,0,0,.2-.17.19.19,0,0,0-.17-.21,9.9,9.9,0,0,0-2.84,0c.43-1.09,1.38-1.32,4.07-1.14a76.11,76.11,0,0,1,8.47,1.46A15.21,15.21,0,0,0,93.29,74.76Zm38.08,5.91a.19.19,0,0,0-.24-.2l-5.57,1.67c-10.65-.93-19-2.89-31.62-6a14.88,14.88,0,0,1,2-11.62c14.78,3.63,25.77,6,41.4,6.27l6.18,16.85a132.75,132.75,0,0,0-1.24,16.61,59.43,59.43,0,0,0-10.68,0A120.41,120.41,0,0,1,131.37,80.67ZM71,142.58a14.45,14.45,0,0,1-4.13.59c-4.62,0-13.71,2.13-14.29.83,0,0,0-.28.61-1,1.71.33,5.7-.27,7.87-.56,8.75-1.17,8.56-.46,11.63-1.18A5.89,5.89,0,0,1,71,142.58Zm5.18-5.29a35.09,35.09,0,0,1-11.35-3.72c2.09-1.61,4.62-3.61,6.19-5.1A41.56,41.56,0,0,0,77.48,136C77.09,136.34,76.64,136.8,76.19,137.29Zm28.93-18.37a.14.14,0,0,0-.11,0,194.13,194.13,0,0,0-25.13,18.64,48.61,48.61,0,0,1-4-3.69,243.61,243.61,0,0,1,24.54-18.66,9.51,9.51,0,0,1,6.81-1.52,177,177,0,0,1,21.24,4.58q-3,1.92-5.94,4A90.58,90.58,0,0,0,105.12,118.92Zm-1.44,47.73a196.92,196.92,0,0,1,6.16-29.93,16.84,16.84,0,0,1,5.18-8,117.7,117.7,0,0,1,21.84-14.8.19.19,0,1,0-.18-.33q-4,2.08-7.74,4.45a179,179,0,0,0-21.62-4.69,10,10,0,0,0-7.08,1.58,243.47,243.47,0,0,0-24.59,18.71,38.9,38.9,0,0,1-5.2-6.78A356.33,356.33,0,0,1,98.1,104.29a9.57,9.57,0,0,1,6.55-1.84,195.9,195.9,0,0,1,27,4.31.19.19,0,0,0,.23-.21q-.12-.93-.24-1.92a71.44,71.44,0,0,1,19.52,1.21c-.1,1.07-.43,6.67,3.4,9.72a222.34,222.34,0,0,0-30.16,18,17.46,17.46,0,0,0-6.52,9.22,186.35,186.35,0,0,0-5.4,26.06A54.18,54.18,0,0,1,103.68,166.65Zm11.24,12.29a13.2,13.2,0,0,1-2.86,3c-3.61,2.83-9.5,10.17-10.74,9.5,0,0-.2-.14-.13-1.18,2.63-1.4,7.73-7.74,11.44-10.65a18.71,18.71,0,0,0,2.81-2.75A5.41,5.41,0,0,1,114.92,178.94Zm.81-7.36a34.63,34.63,0,0,1-11.22,4.08c.64-2.55,1.39-5.66,1.7-7.82a54.74,54.74,0,0,0,9.73,1.84C115.85,170.2,115.79,170.83,115.73,171.58Zm34.37-41.9c-.29.15-8.42,4-24.44,11.62a.2.2,0,0,0-.12.12,140.25,140.25,0,0,0-6.22,28.11,57.12,57.12,0,0,1-6.43-.61,185.57,185.57,0,0,1,5.4-26,17,17,0,0,1,6.37-9,222.87,222.87,0,0,1,30.28-18.08,8.17,8.17,0,0,0,1.76,1,.18.18,0,0,0,.24-.11.19.19,0,0,0-.1-.24c-5.75-2.3-5.39-9.25-5.27-10.51,1.63.3,3.32.65,5.05,1C157.09,108.29,162.05,123.23,150.1,129.68Zm38.48-72.42-1.72,22.29a7.57,7.57,0,0,1-6.9,7A141.85,141.85,0,0,1,156.57,86a.18.18,0,0,0-.17.29l2.28,3.44a100.64,100.64,0,0,0-2.09,16.84,103.56,103.56,0,0,0-13.89-2.28,130.11,130.11,0,0,1,1.23-16.56l11.84-14.66c5.41.73,13.7.71,19.14.61.09,0,.17-.08.19-.21l1.38-17.25A32.94,32.94,0,0,1,188.58,57.26Zm-2.63-1a33.2,33.2,0,0,0-5.94-.58,46.09,46.09,0,0,1,5.48-9,15.93,15.93,0,0,1,2.2-2.37,5.52,5.52,0,0,1,1.55-1.16,5.69,5.69,0,0,1-.71,1.77C186.53,48.9,186.15,51.92,186,56.26Zm.6-3.26a21.35,21.35,0,0,1,1.95-7.12c.48-.74,3.16-3.6,4.37-4,.2-.06.37-.06.26.12-.89,1.39-2.6,3.52-3.41,4.86A65.44,65.44,0,0,0,186.55,53Zm7.37-9c-1.14,1.46-4.87,5.38-5.6,6.25a31.72,31.72,0,0,1,3.08-5.1C193.69,43.49,194.12,43.73,193.92,44Z" style="fill: #3B29AB"></path>
  </g></g></svg>