<svg id="Layer_1" data-name="Layer 1" xmlns="http://www.w3.org/2000/svg" viewBox="0 0 828.082 580.278">
  <g>
    <g>
      <g>
        <rect x="159.388" y="0.854" width="627.105" height="472.854" rx="25.607" transform="translate(945.881 474.561) rotate(-180)" fill="#fff"></rect>
        <path d="M158.534,448.1V26.461A26.491,26.491,0,0,1,185,0H760.886a26.491,26.491,0,0,1,26.461,26.461V448.1a26.491,26.491,0,0,1-26.461,26.46H185A26.49,26.49,0,0,1,158.534,448.1ZM185,1.707a24.782,24.782,0,0,0-24.754,24.754V448.1A24.782,24.782,0,0,0,185,472.854H760.886A24.781,24.781,0,0,0,785.639,448.1V26.461A24.781,24.781,0,0,0,760.886,1.707Z" fill="#292a2e"></path>
      </g>
      <g>
        <path d="M721.913,275.453H338.1a1.587,1.587,0,0,1-1.587-1.587V54.826a1.587,1.587,0,1,1,3.174,0V272.279H721.913a1.587,1.587,0,0,1,0,3.174Z" fill="#0cbc8b"></path>
        <path d="M364.78,242.672h.864a67.312,67.312,0,0,0,60.069-36.937l49.225-97.348c24.975-49.39,95.569-49.211,120.292.3l48.3,96.737a67.314,67.314,0,0,0,60.223,37.243h0" fill="#0cbc8b" opacity="0.2"></path>
        <path d="M703.755,244.054A68.312,68.312,0,0,1,642.3,206.047L594,109.31a64.762,64.762,0,0,0-58.821-36.479h-.181a64.748,64.748,0,0,0-58.822,36.179l-49.225,97.348a68.364,68.364,0,0,1-61.3,37.7h-.863a1.382,1.382,0,1,1,0-2.763h.863a65.614,65.614,0,0,0,58.836-36.179l49.225-97.348a68.339,68.339,0,0,1,61.3-37.7h.179a68.338,68.338,0,0,1,61.285,38.007l48.3,96.737a65.564,65.564,0,0,0,58.987,36.479,1.382,1.382,0,0,1,0,2.763Z" fill="#0cbc8b"></path>
      </g>
      <g opacity="0.2">
        <path d="M324.886,326.951a61.319,61.319,0,0,1,11.019-13.317c1.935-1.758,4.2-4.072,6.768-4.834a5.516,5.516,0,0,1,5.14,1.339c3.252,2.637,5.372,6.47,9.045,8.631,3.471,2.041,7.507,1.911,11.237.707,4.026-1.3,7.7-3.482,11.529-5.234,3.5-1.6,7.512-3.036,11.376-2,4.5,1.2,7.676,5.073,11.841,6.974a12.02,12.02,0,0,0,7.513.93c2.99-.589,5.784-2.058,8.64-3.08a87.814,87.814,0,0,1,40.586-4.37c1.91.243,1.892-2.759,0-3a90.022,90.022,0,0,0-36.846,2.993c-3.066.91-6.044,2.03-9.011,3.216-2.632,1.052-5.348,2-8.172,1.157-4.536-1.348-7.783-5.358-12.137-7.153-8.5-3.5-16.614,2.893-24.143,5.952-3.5,1.421-7.439,2.353-10.9.318-3.682-2.166-5.791-6.224-9.193-8.755a8.359,8.359,0,0,0-6.324-1.731c-3.1.489-5.662,2.845-7.953,4.828A64,64,0,0,0,322.3,325.437c-1.013,1.649,1.58,3.158,2.59,1.514Z" fill="#367cff"></path>
      </g>
      <g opacity="0.2">
        <path d="M194.337,107.33q38.329-2.079,76.716-2.763,10.965-.193,21.932-.273a1.5,1.5,0,0,0,0-3q-38.383.281-76.74,1.96-10.956.481-21.908,1.076c-1.92.105-1.932,3.105,0,3Z" fill="#367cff"></path>
        <path d="M199.823,124.707q37.806-2.173,75.662-3.275,10.709-.312,21.419-.535c1.928-.041,1.935-3.041,0-3q-37.86.8-75.687,2.664-10.7.529-21.394,1.146c-1.92.11-1.932,3.111,0,3Z" fill="#367cff"></path>
        <path d="M199.875,145c25.818.967,91.809-4.576,99-5.671,1.9-.29,1.094-3.181-.8-2.893-25.324,3.86-90.985,5.835-98.2,5.564-1.931-.072-1.927,2.928,0,3Z" fill="#367cff"></path>
        <path d="M199.852,166.705a299.4,299.4,0,0,1,47.734-1.425c1.929.1,1.924-2.9,0-3a299.4,299.4,0,0,0-47.734,1.425c-1.9.209-1.919,3.211,0,3Z" fill="#367cff"></path>
      </g>
      <g opacity="0.2">
        <path d="M579.645,311.584q-13.864-.279-27.727.333c-1.345.061-3.357-.219-3.99,1.305a7.542,7.542,0,0,0-.085,2.927c.061,2.266.041,4.535.018,6.8-.05,4.971-.188,9.942-.214,14.914a35.6,35.6,0,0,0,.081,4,1.741,1.741,0,0,0,.718,1.451,4.485,4.485,0,0,0,2.114.359q1.647.1,3.3.154c9.041.329,18.1.014,27.132.6a1.273,1.273,0,0,0,1.264-1.265l-1.173-26.486-.169-3.825c-.072-1.621-2.6-1.63-2.53,0l1.173,26.486.17,3.825,1.265-1.265c-7.4-.476-14.82-.35-22.23-.471-1.794-.03-3.588-.072-5.381-.142q-1.293-.051-2.586-.123a6.58,6.58,0,0,0-1.147-.07q.766,1.211.61.692c-.009-.036-.016-.072-.022-.108-.052.046.01.214-.006-.192-.01-.27-.025-.539-.032-.809-.02-.7-.02-1.407-.02-2.111.006-4.462.128-8.924.19-13.385.032-2.288.058-4.575.042-6.863-.006-.828-.016-1.655-.043-2.482a6.013,6.013,0,0,0-.044-1.058,2.467,2.467,0,0,1-.031-.494l-.329.26,1.119-.054q14.274-.668,28.567-.371A1.266,1.266,0,0,0,579.645,311.584Z" fill="#367cff"></path>
        <path d="M555.753,327.322A22.188,22.188,0,0,0,562,336.2c1.313,1.105,2.414,1.413,3.923.443,1.734-1.114,3.49-2.194,5.225-3.3,4.229-2.71,8.348-5.586,12.571-8.3,2.23-1.434,4.513-2.782,6.824-4.082a1.266,1.266,0,0,0-1.277-2.184c-4.494,2.53-8.764,5.361-13.047,8.227q-4.745,3.174-9.58,6.209c-.6.376-1.994,1.564-2.5,1.492-.626-.089-1.875-1.7-2.286-2.153a19.424,19.424,0,0,1-3.656-5.894c-.593-1.5-3.041-.843-2.439.672Z" fill="#367cff"></path>
        <path d="M555.753,372.2A22.191,22.191,0,0,0,562,381.075c1.313,1.106,2.414,1.414,3.923.444,1.734-1.114,3.49-2.194,5.225-3.306,4.229-2.71,8.348-5.586,12.571-8.3,2.23-1.435,4.513-2.782,6.824-4.083a1.266,1.266,0,0,0-1.277-2.184c-4.494,2.53-8.764,5.362-13.047,8.228q-4.745,3.174-9.58,6.208c-.6.376-1.994,1.564-2.5,1.492-.626-.089-1.875-1.7-2.286-2.153a19.424,19.424,0,0,1-3.656-5.894c-.593-1.5-3.041-.843-2.439.673Z" fill="#367cff"></path>
        <path d="M555.753,417.129A22.191,22.191,0,0,0,562,426.006c1.313,1.105,2.414,1.413,3.923.443,1.734-1.114,3.49-2.193,5.225-3.305,4.229-2.71,8.348-5.586,12.571-8.3,2.23-1.434,4.513-2.781,6.824-4.082a1.266,1.266,0,0,0-1.277-2.184c-4.494,2.53-8.764,5.362-13.047,8.227q-4.745,3.174-9.58,6.209c-.6.376-1.994,1.564-2.5,1.492-.626-.089-1.875-1.7-2.286-2.153a19.424,19.424,0,0,1-3.656-5.894c-.593-1.5-3.041-.843-2.439.673Z" fill="#367cff"></path>
        <path d="M579.645,356.456q-13.864-.279-27.727.333c-1.345.061-3.357-.219-3.99,1.305a7.542,7.542,0,0,0-.085,2.927c.061,2.266.041,4.535.018,6.8-.05,4.972-.188,9.943-.214,14.915a35.6,35.6,0,0,0,.081,4,1.741,1.741,0,0,0,.718,1.451,4.485,4.485,0,0,0,2.114.359c1.1.064,2.2.113,3.3.153,9.041.33,18.1.015,27.132.6a1.274,1.274,0,0,0,1.264-1.265l-1.173-26.486-.169-3.825c-.072-1.621-2.6-1.63-2.53,0l1.173,26.486.17,3.825,1.265-1.265c-7.4-.476-14.82-.35-22.23-.471-1.794-.03-3.588-.072-5.381-.142q-1.293-.051-2.586-.123a6.483,6.483,0,0,0-1.147-.07q.766,1.21.61.692c-.009-.036-.016-.072-.022-.109-.052.047.01.215-.006-.191-.01-.27-.025-.54-.032-.809-.02-.7-.02-1.407-.02-2.111.006-4.462.128-8.924.19-13.386.032-2.287.058-4.575.042-6.862-.006-.828-.016-1.655-.043-2.483a6,6,0,0,0-.044-1.057,2.477,2.477,0,0,1-.031-.5l-.329.261,1.119-.054q14.274-.669,28.567-.371A1.266,1.266,0,0,0,579.645,356.456Z" fill="#367cff"></path>
        <path d="M579.645,401.328q-13.864-.279-27.727.333c-1.345.06-3.357-.219-3.99,1.305a7.542,7.542,0,0,0-.085,2.927c.061,2.266.041,4.535.018,6.8-.05,4.972-.188,9.943-.214,14.914a35.6,35.6,0,0,0,.081,4,1.743,1.743,0,0,0,.718,1.452,4.472,4.472,0,0,0,2.114.358c1.1.065,2.2.114,3.3.154,9.041.329,18.1.014,27.132.6a1.273,1.273,0,0,0,1.264-1.264l-1.173-26.486-.169-3.825c-.072-1.622-2.6-1.63-2.53,0l1.173,26.485.17,3.826,1.265-1.265c-7.4-.476-14.82-.35-22.23-.472-1.794-.029-3.588-.071-5.381-.141q-1.293-.051-2.586-.123a6.483,6.483,0,0,0-1.147-.07q.766,1.21.61.691c-.009-.035-.016-.071-.022-.108-.052.047.01.215-.006-.192-.01-.269-.025-.539-.032-.809-.02-.7-.02-1.407-.02-2.11.006-4.462.128-8.924.19-13.386.032-2.287.058-4.575.042-6.862-.006-.828-.016-1.656-.043-2.483a6,6,0,0,0-.044-1.057,2.477,2.477,0,0,1-.031-.5l-.329.261q.56-.029,1.119-.054,14.274-.669,28.567-.371A1.266,1.266,0,0,0,579.645,401.328Z" fill="#367cff"></path>
        <path d="M600.422,319.972a5.687,5.687,0,0,0,7.883,5.551c1.909-.826,2.566-2.347,3.563-4.026.681-1.147,1.19-.765,2.307-.31a13.114,13.114,0,0,0,3.529.858c5.215.586,10.657-1.109,15.808-1.752A147.62,147.62,0,0,1,650,319.167a149.63,149.63,0,0,1,18.94.984c1.615.185,1.6-2.346,0-2.53a149,149,0,0,0-30.85-.357c-4.9.457-9.711,1.306-14.571,2.028a17.911,17.911,0,0,1-7.375-.095c-1.729-.48-3.34-1.756-5.084-.584-1.653,1.112-1.735,3.535-3.508,4.476a3.154,3.154,0,0,1-4.6-3.117c.073-1.627-2.457-1.623-2.53,0Z" fill="#367cff"></path>
        <path d="M597.8,364.849c.348,3.368,4.4,3.633,6.73,2.07,1.626-1.091,3.03-2.783,5.168-2,1.985.729,3.555,2.133,5.684,2.56,4.442.89,9.251-.572,13.663-1.107q7.48-.906,15.027-1.093a159.732,159.732,0,0,1,16.975.5c1.623.133,1.614-2.4,0-2.53a158.639,158.639,0,0,0-27.37.1c-4.508.411-8.952,1.253-13.446,1.732a11.193,11.193,0,0,1-6.067-.658c-1.589-.76-3.019-1.91-4.8-2.2-1.992-.323-3.559.581-5.088,1.751a5.774,5.774,0,0,1-2.26,1.332c-.386.073-1.626.14-1.688-.462-.165-1.6-2.7-1.621-2.529,0Z" fill="#367cff"></path>
        <path d="M601.312,408.775c.247,3.774,4.75,4.754,7.763,3.605,2.1-.8,4.113-2.682,6.449-2.708a9.872,9.872,0,0,1,3.786,1.2,26.448,26.448,0,0,0,3.966,1.316c5.117,1.254,10.447,1.1,15.66.7,5.664-.431,11.306-.947,16.988-1.108q10.022-.282,20.037.406c1.625.109,1.618-2.421,0-2.53a212.312,212.312,0,0,0-32.521.323,86.615,86.615,0,0,1-14.988.5,28.365,28.365,0,0,1-7.089-1.507c-2.186-.784-4.183-2.082-6.6-1.767-2.5.325-4.35,2.033-6.657,2.84-1.191.416-4.148.54-4.267-1.277-.106-1.616-2.636-1.628-2.529,0Z" fill="#367cff"></path>
      </g>
      <g>
        <g opacity="0.2">
          <path d="M651.884,58.713a53.862,53.862,0,0,1,5.277-9.664c.7-1.017,1.656-2.828,3.127-2.247,1.358.537,2.584,2.109,3.6,3.12,2.075,2.067,4.153,4.278,6.75,5.7a11.541,11.541,0,0,0,8.434,1.094c2.992-.744,5.647-2.433,8.346-3.857a19.559,19.559,0,0,1,9.742-2.474,52.559,52.559,0,0,1,10.89,1.78c3.693.861,7.4,1.615,11.159,2.146a115.226,115.226,0,0,0,25.663.751c1.91-.16,1.927-3.161,0-3a113.4,113.4,0,0,1-23.843-.507,118.268,118.268,0,0,1-11.734-2.178,64.695,64.695,0,0,0-11.237-1.96A21.658,21.658,0,0,0,687.649,49.4c-2.8,1.3-5.372,3.136-8.311,4.117a9.023,9.023,0,0,1-8.371-1.213c-2.5-1.711-4.457-4.115-6.672-6.156-1.346-1.24-2.88-2.58-4.83-2.5-1.763.073-3.045,1.367-4.038,2.689A51.379,51.379,0,0,0,649.293,57.2a1.554,1.554,0,0,0,.538,2.052,1.511,1.511,0,0,0,2.053-.538Z" fill="#367cff"></path>
        </g>
        <g opacity="0.2">
          <path d="M661.856,81.576l2.564-3.02,1.442-1.7a7.613,7.613,0,0,1,1.259-1.451c.827-.538,2.015.637,2.771,1.044a15.267,15.267,0,0,0,3.267,1.3c4.462,1.2,9.176.431,13.613-.49a92.25,92.25,0,0,1,14.838-2.309c5.227-.227,10.457.052,15.683.124a70.4,70.4,0,0,0,17.713-1.557c1.875-.457,1.081-3.351-.8-2.893-10.614,2.588-21.584.883-32.366,1.316A88.453,88.453,0,0,0,686.8,74.2c-4.509.965-9.482,1.959-13.957.315-2.2-.81-4.54-3.343-7.014-1.881a13.14,13.14,0,0,0-2.892,3.048l-3.2,3.775c-1.243,1.464.869,3.6,2.121,2.121Z" fill="#367cff"></path>
        </g>
      </g>
    </g>
    <path d="M827.082,580.278H1a1,1,0,0,1,0-2H827.082a1,1,0,1,1,0,2Z" fill="#292a2e"></path>
    <g>
      <g>
        <rect x="565.194" y="546.764" width="111.51" height="32" transform="translate(1241.898 1125.527) rotate(180)" fill="#367cff"></rect>
        <rect x="565.194" y="546.764" width="111.51" height="32" transform="translate(1241.898 1125.527) rotate(180)" fill="#fff" opacity="0.69"></rect>
        <rect x="580.169" y="546.764" width="14.612" height="32" transform="translate(1174.949 1125.527) rotate(180)" fill="#fff" opacity="0.65"></rect>
        <rect x="601.702" y="552.846" width="60.754" height="18.963" transform="translate(1264.157 1124.655) rotate(180)" fill="#fff" opacity="0.65"></rect>
      </g>
      <g>
        <rect x="538.606" y="514.794" width="109.978" height="32" transform="translate(1187.19 1061.588) rotate(-180)" fill="#367cff"></rect>
        <rect x="538.606" y="514.794" width="109.978" height="32" transform="translate(1187.19 1061.588) rotate(-180)" fill="#fff" opacity="0.6"></rect>
        <rect x="552.659" y="520.877" width="59.919" height="18.963" transform="translate(1165.237 1060.716) rotate(-180)" fill="#fff" opacity="0.42"></rect>
        <rect x="619.404" y="514.794" width="14.411" height="32" transform="translate(1253.219 1061.589) rotate(-180)" fill="#fff" opacity="0.42"></rect>
      </g>
      <g>
        <rect x="453.212" y="509.983" width="111.51" height="32" transform="translate(1239.488 480.776) rotate(130.517)" fill="#367cff"></rect>
        <rect x="453.212" y="509.983" width="111.51" height="32" transform="translate(1239.488 480.776) rotate(130.517)" fill="#fff" opacity="0.78"></rect>
        <rect x="479.913" y="535.431" width="14.612" height="32" transform="translate(1222.958 539.289) rotate(130.517)" fill="#367cff" opacity="0.2"></rect>
        <rect x="485.489" y="507.758" width="60.754" height="18.963" transform="translate(1244.222 461.106) rotate(130.517)" fill="#367cff" opacity="0.2"></rect>
      </g>
      <g>
        <rect x="662.786" y="477.124" width="162.02" height="3.001" transform="translate(-100.39 742.561) rotate(-50.123)" fill="#292a2e"></rect>
        <rect x="736.232" y="528.672" width="12.25" height="43.138" fill="#367cff"></rect>
        <polygon points="736.232 551.065 748.481 558.019 748.481 548.628 736.232 551.065" fill="#292a2e"></polygon>
        <rect x="722.607" y="571.809" width="41.087" height="6.469" rx="3.234" fill="#367cff"></rect>
        <path d="M742.357,562.02A82.814,82.814,0,0,1,681.9,535.667a1.5,1.5,0,1,1,2.2-2.043A79.536,79.536,0,1,0,788.436,414.655a1.5,1.5,0,1,1,1.74-2.443A82.537,82.537,0,0,1,742.357,562.02Z" fill="#292a2e"></path>
        <circle cx="742.357" cy="479.488" r="71.577" fill="#367cff"></circle>
        <circle cx="742.357" cy="479.488" r="71.577" fill="#fff" opacity="0.5"></circle>
        <g opacity="0.4">
          <path d="M809.067,505.5a71.7,71.7,0,0,1-55.88,44.76c-.94-2.99-1.88-5.99-2.81-8.98-1.59-5.07-3.08-10.95-.181-15.4,1.4-2.15,3.631-3.59,5.631-5.19a35.161,35.161,0,0,0,9.89-12.72c1.14-2.51,2.12-5.33,4.41-6.87a11.132,11.132,0,0,1,4.69-1.48,71.48,71.48,0,0,1,17.959-.04c4.221.47,8.491,1.22,12.25,3.19A22.918,22.918,0,0,1,809.067,505.5Z" fill="#fff"></path>
        </g>
        <g opacity="0.4">
          <path d="M813.877,476.657a54.205,54.205,0,0,1-20.15-6.3,21.033,21.033,0,0,1-6.63-5.18,18.057,18.057,0,0,1-3.02-6.55,29.34,29.34,0,0,1-.86-9.56c.35-4.63,1.75-9.6-.46-13.68-1.63-3.02-4.89-4.78-8.15-5.88s-6.69-1.7-9.75-3.24a8.078,8.078,0,0,1-3.92-3.64,9.6,9.6,0,0,1-.35-5.11,40.245,40.245,0,0,1,1.75-6.78A71.609,71.609,0,0,1,813.877,476.657Z" fill="#fff"></path>
        </g>
        <g opacity="0.4">
          <path d="M744.257,468.007c.46,11.66-18.37,12.14-21,22.25-2.09,6.1.439,12.73,1.67,19.06,3.45,17.79-11.25,24.43-24.941,27.86a71.594,71.594,0,0,1-20.589-91.76,42.449,42.449,0,0,1,7.76-.45c7.43-1.75,12.27-8.76,18.69-12.9,10.23-6.73,25.9-8.58,28.429,4.07,1.96,9.78-6.969,11.3-4.349,19.45C732.067,461.767,742.877,461.607,744.257,468.007Z" fill="#fff"></path>
        </g>
      </g>
    </g>
    <g>
      <g>
        <path d="M431.962,240.5a5.854,5.854,0,0,1,7.792-3.39,6.076,6.076,0,0,1,3.1,7.694l-2.7,7.43,16.935-17.267c2.1-2.21,6.1-3.576,8.424-1.052,2.012,1.916,6.665,2.507,7.42,6.1.026.019-.021,32.894-1.973,34.944h0c-8.283,8.7-28.305,10.38-39.475,5.963l-17.58-6.951Z" fill="#E98862"></path>
        <g opacity="0.1">
          <path d="M431.962,240.5a5.854,5.854,0,0,1,7.792-3.39,6.076,6.076,0,0,1,3.1,7.694l-2.7,7.43,16.935-17.267c2.1-2.21,6.1-3.576,8.424-1.052,2.012,1.916,6.665,2.507,7.42,6.1.026.019-.021,32.894-1.973,34.944h0c-8.283,8.7-28.305,10.38-39.475,5.963l-17.58-6.951Z" fill="#0c0c0c"></path>
        </g>
        <path d="M449.276,276.094a4,4,0,0,1-3.779-5.313L514.809,71.119a4,4,0,1,1,7.556,2.624L453.054,273.4A4,4,0,0,1,449.276,276.094Z" fill="#0a0a0a"></path>
        <path d="M448.548,261.062a4.793,4.793,0,0,1,4.617-3.491c-.013-.083-.1-.276.042-.291l-3.6-1.747a4.878,4.878,0,0,1-2.635-5.845,4.7,4.7,0,0,1,5.5-3.075c-.016-.044.007-.093.006-.14L451,245.755a4.818,4.818,0,0,1-2.658-5.484,4.706,4.706,0,0,1,6.609-3.052l3.412,1.657c.006-.02-.007-.039,0-.058s.041-.03.056-.052a4.7,4.7,0,0,1-1.3-5.718c1.038-2.553,4.429-2.649,6.635-1.578l6.686,3.914a7.253,7.253,0,0,1,3.576,5.846c.6,10.329,1.508,37.344-5.532,33.926l-17.331-8.416A5.093,5.093,0,0,1,448.548,261.062Z" fill="#E98862"></path>
      </g>
      <g>
        <path d="M77.258,233.324s-2.146,32.216-9.394,43.9C47,310.876,40.953,348.73,61.849,368.505s154.17,20.051,164.266-25.436c8.5-38.294-9.741-42.412-14.179-74C209.927,254.772,204.4,224.8,204.4,224.8" fill="#0a0a0a"></path>
        <path id="sk" d="M191.618,336.4c-.23-.03-2.783,42.33-51.993,38.637-34.068-2.552-46.215-38.7-47-38.7,3.673-.78,9.859-1.916,11.49-2.786,5.364-2.883,12-5.882,13.731-16.3,1-6-.694-36.722-.174-42.8l52.3,11.672c-.731,12.83-5.845,42.575,12.08,47.839C185.033,334.839,188.246,335.64,191.618,336.4Z" fill="#E98862"></path>
        <path id="sh" d="M170.7,321.812a37.787,37.787,0,0,1-1.573-8.116,86.451,86.451,0,0,1,.342-18.878,57.331,57.331,0,0,1-28.9-12.662c-.971,3.586-6.311,19.256-4.833,22.664C138.532,311.262,151.666,321.812,170.7,321.812Z" fill="#0c0c0c" opacity="0.5"></path>
        <path d="M163.941,308.614c-20.617,2-47.293-6.252-52.82-33.708l-4.986-24.774c-5.526-27.456,4.415-52.616,30.267-57.819h0c25.851-5.2,49.654,13.166,55.18,40.622l2.207,10.968C195.91,254.437,200.727,305.055,163.941,308.614Z" fill="#E98862"></path>
        <ellipse cx="150.3" cy="268.128" rx="6.187" ry="4.538" transform="translate(-30.709 19.696) rotate(-6.804)" fill="#0c0c0c" opacity="0.1"></ellipse>
        <path d="M186.688,262.686c.3,2.485,3.294,4.172,6.688,3.772a8.548,8.548,0,0,0,1.723-.391c.157-2.963.167-5.814.08-8.453a7.779,7.779,0,0,0-2.883-.168C188.9,257.846,186.393,260.191,186.688,262.686Z" fill="#0c0c0c" opacity="0.1"></path>
        <path d="M171.7,270.367l.051-.008a29.045,29.045,0,0,0,3.1-.827c1.518-.508,3.505-1.342,3.228-2.715-.314-1.565-8-17.581-8.872-19.4a.666.666,0,0,0-1.2.577c3.277,6.821,8.556,18.035,8.767,19.089-.165.491-2.684,1.45-5.283,1.974a.665.665,0,0,0,.212,1.313Z" fill="#0c0c0c" opacity="0.5"></path>
        <path d="M85.509,259.025l23.176-4.527c17.506-7.321,22.473-37.832,22.473-37.832s21.606,20.576,73.245,8.134c0,0-11.217-72.086-87.465-50.205-24.586,7.055-42,32.115-39.41,65.307C79.343,263.163,85.509,259.025,85.509,259.025Z" fill="#0a0a0a"></path>
        <path d="M114.411,282.948c-7.857,1.581-15.917-5.542-17.5-13.4s3.916-13.471,11.772-15.052l5.107,4.449,7.373,22.641Z" fill="#E98862"></path>
        <path d="M174.77,234.643a13.617,13.617,0,0,1,6.663-2.447,12.022,12.022,0,0,1,3.6.2,14.607,14.607,0,0,1,3.451,1.169l.035.016a.509.509,0,0,0,.433-.921,15.643,15.643,0,0,0-3.676-1.384,13.224,13.224,0,0,0-3.937-.349,15.018,15.018,0,0,0-7.5,2.5.764.764,0,1,0,.86,1.264l.018-.013Z" fill="#0c0c0c"></path>
        <path d="M153.6,237.569a15,15,0,0,0-7.888.558,13.227,13.227,0,0,0-3.5,1.829,15.676,15.676,0,0,0-2.867,2.685.509.509,0,0,0,.752.686l.027-.028a14.549,14.549,0,0,1,2.74-2.4,11.991,11.991,0,0,1,3.255-1.564,13.639,13.639,0,0,1,7.092-.289l.058.014a.764.764,0,0,0,.36-1.485Z" fill="#0c0c0c"></path>
        <path d="M108.7,254.118c15.58-5.8,20.749-16.558,22.342-24.564a39.059,39.059,0,0,0-.283-16.135l-.482.132a38.559,38.559,0,0,1,.271,15.924c-1.571,7.875-6.668,18.461-22.022,24.175Z" fill="#0c0c0c"></path>
      </g>
      <path d="M231.7,341.438l147.928,49.447-43.432,19.306,73.757-151.32,60.283,28.094L401.8,440.763a35.455,35.455,0,0,1-41.961,19.723l-1.471-.417L208.2,417.909Z" fill="#367cff"></path>
      <path id="b_1_b" d="M138.706,364.448c-34.091-1.607-35.526-30.543-35.526-30.543S86.288,335,75.058,336.516C56.674,339,44.546,345.237,34.9,354.888c-8.978,8.978-14.444,18.692-8.66,80.711,4.188,44.905,1.24,143.679,1.24,143.679h207.75s14.508-142.7,16.227-162.911c3.283-38.589,12.555-47.108-6.232-66.986-13.625-14.416-48.8-15.476-62.958-15.474C182.031,333.907,185.134,366.636,138.706,364.448Z" fill="#367cff"></path>
      <g>
        <path d="M209.668,483.461l31.273-13.967a5.421,5.421,0,0,1,7.337,3.19,5.61,5.61,0,0,1-3.173,6.821l-6.706,3,25.411.261c2.825-.02,6.306,1.763,6.12,4.934A5.418,5.418,0,0,1,265.766,493a.453.453,0,0,1,.012.081.426.426,0,0,1-.013.062l4.357-.031a5.424,5.424,0,0,1,5.353,6.5A5.549,5.549,0,0,1,270,503.952l-1.855.014a.48.48,0,0,1-.1.144,5.419,5.419,0,0,1,4.221,5.608,5.591,5.591,0,0,1-5.63,5.1l-4.606.033a.5.5,0,0,1,.216.4.483.483,0,0,1-.089.264,5.424,5.424,0,0,1,2.727,5.987,5.544,5.544,0,0,1-5.449,4.2l-38.859.277a27.292,27.292,0,0,1-25.422-16.876h0a18.009,18.009,0,0,1,9.3-23.317Z" fill="#E98862"></path>
        <g opacity="0.2">
          <path d="M240.612,492.868a.5.5,0,0,0,.5.492l24.166.218a.5.5,0,1,0,.009-1l-24.166-.218a.5.5,0,0,0-.5.5Z" fill="#0c0c0c"></path>
        </g>
        <g opacity="0.2">
          <path d="M240.222,503.523a.5.5,0,0,0,.5.493l26.97.243a.5.5,0,0,0,.5-.5.518.518,0,0,0-.5-.5l-26.969-.243a.5.5,0,0,0-.5.5Z" fill="#0c0c0c"></path>
        </g>
        <g opacity="0.2">
          <path d="M239.733,515.061a.5.5,0,0,0,.5.493l21.513.194a.5.5,0,1,0,.009-1l-21.513-.194a.5.5,0,0,0-.5.5Z" fill="#0c0c0c"></path>
        </g>
      </g>
      <path id="b_4_b" d="M218.619,539.144,45.232,578.558a37.5,37.5,0,0,1-41.038-43.5l19.842-159.6A37.5,37.5,0,1,1,98,387.9L88.441,502.132l120.464-27.261Z" fill="#367cff"></path>
      <g id="b_4_st">
        <path d="M64.065,506.624a.5.5,0,0,1-.074-.994l24.161-5.159a.494.494,0,0,1,.569.42.5.5,0,0,1-.42.568L64.14,506.618A.493.493,0,0,1,64.065,506.624Z" fill="#0c0c0c"></path>
      </g>
      <g id="b_4_st-2" data-name="b_4_st">
        <path d="M50.433,579.278a.5.5,0,0,1-.064-1L217.53,538.911l-9.471-63.3L88.314,501.461a.507.507,0,0,1-.425-.148.5.5,0,0,1-.134-.431l6.716-65.27a.494.494,0,0,1,.577-.41.5.5,0,0,1,.41.576l-6.6,64.6,119.433-25.87a.494.494,0,0,1,.385.05.505.505,0,0,1,.233.311l9.714,64.273a.5.5,0,0,1-.353.6L50.5,579.274A.487.487,0,0,1,50.433,579.278Z" fill="#0c0c0c"></path>
      </g>
      <path d="M178.607,275.779a33.807,33.807,0,0,1-21.721,3.061,1.369,1.369,0,0,0-1.452,2.009c2.2,3.877,7.419,10.5,16.37,7.8,5.78-1.744,7.966-7.691,8.776-11.369A1.368,1.368,0,0,0,178.607,275.779Z" fill="#fff"></path>
      <circle cx="179.026" cy="242.749" r="3.237" fill="#0c0c0c"></circle>
      <circle cx="147.921" cy="248.195" r="3.237" fill="#0c0c0c"></circle>
      <path d="M250.99,430.423a.44.44,0,0,1-.062,0,.5.5,0,0,1-.435-.558l3.217-26.077a.49.49,0,0,1,.558-.434.5.5,0,0,1,.434.557l-3.217,26.077A.5.5,0,0,1,250.99,430.423Z" fill="#0c0c0c"></path>
    </g>
  </g>
</svg>