<svg width="626" height="605" viewBox="0 0 626 605" fill="none" xmlns="http://www.w3.org/2000/svg">
<path d="M73.7524 121.946C95.6188 158.742 142.431 171.258 142.431 171.258C142.431 171.258 153.811 124.15 131.945 87.3542C110.078 50.558 63.2661 38.0419 63.2661 38.0419C63.2661 38.0419 51.886 85.15 73.7524 121.946Z" fill="#C3BEFF"/>
<path d="M142.479 171.23L63.3142 38.0134" stroke="white" stroke-width="0.474317" stroke-miterlimit="10"/>
<path d="M91.4546 85.3663L66.6643 80.8281" stroke="white" stroke-width="0.474317" stroke-miterlimit="10"/>
<path d="M104.799 107.232L107.589 65.9521" stroke="white" stroke-width="0.474317" stroke-miterlimit="10"/>
<path d="M112.082 120.077L75.2188 112.892" stroke="white" stroke-width="0.474317" stroke-miterlimit="10"/>
<path d="M122.495 137.012L133.698 101.605" stroke="white" stroke-width="0.474317" stroke-miterlimit="10"/>
<path d="M131.266 151.773L103.841 148.101" stroke="white" stroke-width="0.474317" stroke-miterlimit="10"/>
<path d="M81.9811 181.77C105.633 189.326 130.753 176.713 130.753 176.713C130.753 176.713 117.589 151.874 93.9855 144.289C70.3817 136.705 45.2135 149.347 45.2135 149.347C45.2135 149.347 58.3283 174.324 81.9811 181.77Z" fill="#C3BEFF"/>
<path d="M130.792 176.777L45.2037 149.44" stroke="white" stroke-width="0.474317" stroke-miterlimit="10"/>
<path d="M75.6318 159.159L63.1295 166.722" stroke="white" stroke-width="0.474317" stroke-miterlimit="10"/>
<path d="M89.8364 163.515L75.168 144.537" stroke="white" stroke-width="0.474317" stroke-miterlimit="10"/>
<path d="M97.9287 166.274L79.1813 177.353" stroke="white" stroke-width="0.474317" stroke-miterlimit="10"/>
<path d="M108.973 169.619L100.215 149.95" stroke="white" stroke-width="0.474317" stroke-miterlimit="10"/>
<path d="M118.451 172.649L105.14 181.612" stroke="white" stroke-width="0.474317" stroke-miterlimit="10"/>
<path d="M142.628 114.718C136.845 138.852 151.299 162.99 151.299 162.99C151.299 162.99 175.09 147.994 180.847 123.854C186.604 99.7128 172.205 75.63 172.205 75.63C172.205 75.63 148.385 90.5772 142.628 114.718Z" fill="#C3BEFF"/>
<path d="M151.299 162.99L172.177 75.5814" stroke="white" stroke-width="0.474317" stroke-miterlimit="10"/>
<path d="M164.756 106.64L156.285 94.7417" stroke="white" stroke-width="0.474317" stroke-miterlimit="10"/>
<path d="M161.467 121.131L179.306 105.101" stroke="white" stroke-width="0.474317" stroke-miterlimit="10"/>
<path d="M159.304 129.418L146.882 111.533" stroke="white" stroke-width="0.474317" stroke-miterlimit="10"/>
<path d="M156.809 140.68L175.763 130.464" stroke="white" stroke-width="0.474317" stroke-miterlimit="10"/>
<path d="M154.495 150.37L144.573 137.759" stroke="white" stroke-width="0.474317" stroke-miterlimit="10"/>
<path d="M566.022 263.113C553.229 303.961 510.565 326.936 510.565 326.936C510.565 326.936 488.629 283.723 501.422 242.875C514.214 202.027 556.879 179.051 556.879 179.051C556.879 179.051 578.814 222.265 566.022 263.113Z" fill="#C3BEFF"/>
<path d="M510.51 326.92L556.824 179.035" stroke="white" stroke-width="0.474317" stroke-miterlimit="10"/>
<path d="M540.362 231.602L563.438 221.468" stroke="white" stroke-width="0.474317" stroke-miterlimit="10"/>
<path d="M532.419 255.956L520.186 216.432" stroke="white" stroke-width="0.474317" stroke-miterlimit="10"/>
<path d="M528.294 270.135L562.507 254.641" stroke="white" stroke-width="0.474317" stroke-miterlimit="10"/>
<path d="M522.065 289.015L503.001 257.146" stroke="white" stroke-width="0.474317" stroke-miterlimit="10"/>
<path d="M516.934 305.401L542.773 295.502" stroke="white" stroke-width="0.474317" stroke-miterlimit="10"/>
<path d="M571.808 323.222C550.536 336.029 523.185 329.55 523.185 329.55C523.185 329.55 530.266 302.344 551.485 289.52C572.704 276.696 600.109 283.192 600.109 283.192C600.109 283.192 593.107 310.521 571.808 323.222Z" fill="#C3BEFF"/>
<path d="M523.161 329.622L600.139 283.281" stroke="white" stroke-width="0.474317" stroke-miterlimit="10"/>
<path d="M572.772 299.756L586.682 304.232" stroke="white" stroke-width="0.474317" stroke-miterlimit="10"/>
<path d="M559.956 307.27L569.853 285.421" stroke="white" stroke-width="0.474317" stroke-miterlimit="10"/>
<path d="M552.718 311.822L573.514 318.278" stroke="white" stroke-width="0.474317" stroke-miterlimit="10"/>
<path d="M542.742 317.624L546.729 296.465" stroke="white" stroke-width="0.474317" stroke-miterlimit="10"/>
<path d="M534.217 322.758L549.237 328.41" stroke="white" stroke-width="0.474317" stroke-miterlimit="10"/>
<path d="M497.336 271.965C508.528 294.115 500.03 320.936 500.03 320.936C500.03 320.936 473.422 311.832 462.254 289.67C451.086 267.507 459.544 240.753 459.544 240.753C459.544 240.753 486.168 249.803 497.336 271.965Z" fill="#C3BEFF"/>
<path d="M500.029 320.936L459.559 240.699" stroke="white" stroke-width="0.474317" stroke-miterlimit="10"/>
<path d="M473.942 269.209L479.441 255.677" stroke="white" stroke-width="0.474317" stroke-miterlimit="10"/>
<path d="M480.484 282.551L459.429 271.067" stroke="white" stroke-width="0.474317" stroke-miterlimit="10"/>
<path d="M484.499 290.115L492.462 269.847" stroke="white" stroke-width="0.474317" stroke-miterlimit="10"/>
<path d="M489.522 300.499L468.724 294.929" stroke="white" stroke-width="0.474317" stroke-miterlimit="10"/>
<path d="M494.008 309.393L500.755 294.834" stroke="white" stroke-width="0.474317" stroke-miterlimit="10"/>
<path d="M331.807 605C456.279 605 557.184 595.383 557.184 583.52C557.184 571.657 456.279 562.041 331.807 562.041C207.335 562.041 106.431 571.657 106.431 583.52C106.431 595.383 207.335 605 331.807 605Z" fill="#E8E4FF"/>
<rect x="120.1" y="53.9041" width="407.395" height="349.338" rx="14.9027" fill="white"/>
<rect x="138.755" y="100.448" width="172.193" height="172.219" rx="14.4846" fill="#F5F4F9"/>
<path d="M120.1 68.3887C120.1 60.389 126.585 53.9041 134.585 53.9041H513.011C521.01 53.9041 527.495 60.389 527.495 68.3887V86.577H120.1V68.3887Z" fill="#4A3AFF"/>
<ellipse cx="138.779" cy="68.2557" rx="5.03911" ry="5.03989" fill="white"/>
<ellipse cx="153.896" cy="68.2557" rx="5.03911" ry="5.03989" fill="white"/>
<ellipse cx="169.013" cy="68.2557" rx="5.03911" ry="5.03989" fill="white"/>
<rect x="149.075" y="110.744" width="151.553" height="151.601" rx="14.9027" fill="white"/>
<rect opacity="0.2" x="163.443" y="130.666" width="37.5798" height="6.7614" rx="3.3807" fill="#4A3AFF"/>
<line x1="165.574" y1="167.243" x2="278.087" y2="167.243" stroke="#EFF0F7" stroke-width="0.614775"/>
<line x1="165.574" y1="184.108" x2="278.087" y2="184.108" stroke="#EFF0F7" stroke-width="0.614775"/>
<line x1="165.574" y1="200.973" x2="278.087" y2="200.973" stroke="#EFF0F7" stroke-width="0.614775"/>
<line x1="165.574" y1="217.837" x2="278.087" y2="217.837" stroke="#EFF0F7" stroke-width="0.614775"/>
<line x1="165.574" y1="236.136" x2="278.087" y2="236.136" stroke="#EFF0F7" stroke-width="0.614775"/>
<ellipse opacity="0.2" cx="346.952" cy="118.505" rx="17.9367" ry="17.9395" fill="#4A3AFF"/>
<rect x="428.899" y="102.002" width="7.1758" height="58.2702" rx="3.5879" transform="rotate(90 428.899 102.002)" fill="#E0DBF4"/>
<rect x="508.84" y="114.917" width="7.1758" height="138.211" rx="3.5879" transform="rotate(90 508.84 114.917)" fill="#F5F4F9"/>
<rect x="508.84" y="127.834" width="7.1758" height="138.211" rx="3.5879" transform="rotate(90 508.84 127.834)" fill="#F5F4F9"/>
<ellipse opacity="0.2" cx="346.954" cy="177.347" rx="17.9367" ry="17.9395" fill="#4A3AFF"/>
<rect x="428.9" y="160.843" width="7.1758" height="58.2702" rx="3.5879" transform="rotate(90 428.9 160.843)" fill="#E0DBF4"/>
<rect x="508.841" y="173.759" width="7.1758" height="138.211" rx="3.5879" transform="rotate(90 508.841 173.759)" fill="#F5F4F9"/>
<rect x="508.841" y="186.675" width="7.1758" height="138.211" rx="3.5879" transform="rotate(90 508.841 186.675)" fill="#F5F4F9"/>
<ellipse opacity="0.2" cx="346.954" cy="236.189" rx="17.9367" ry="17.9395" fill="#4A3AFF"/>
<rect x="428.9" y="219.684" width="7.1758" height="58.2702" rx="3.5879" transform="rotate(90 428.9 219.684)" fill="#E0DBF4"/>
<rect x="508.841" y="232.601" width="7.1758" height="138.211" rx="3.5879" transform="rotate(90 508.841 232.601)" fill="#F5F4F9"/>
<rect x="508.841" y="245.517" width="7.1758" height="138.211" rx="3.5879" transform="rotate(90 508.841 245.517)" fill="#F5F4F9"/>
<rect x="138.755" y="291.324" width="370.086" height="93.2613" rx="10.9612" fill="#F5F4F9"/>
<rect x="149.505" y="302.068" width="348.587" height="71.7728" rx="11.2545" fill="white"/>
<path d="M272.946 359.54L273.151 360.004L273.64 359.868L299.693 352.616L299.755 352.599L299.812 352.568L325.67 338.743L351.596 345.554L351.816 345.612L352.018 345.506L378.364 331.729L403.908 331.674L428.964 345.705L428.967 345.707L429.21 345.845L429.488 346.002L429.772 345.854L454.561 332.872L455.203 332.536L454.742 331.978L454.259 331.394L453.956 331.027L453.534 331.248L429.526 343.818L404.743 329.941L404.743 329.941L404.738 329.939L404.624 329.876L404.492 329.804L404.34 329.804L377.955 329.86L377.811 329.86L377.684 329.926L351.543 343.595L325.614 336.776L325.391 336.718L325.188 336.827L298.964 350.862L273.036 358.083L272.381 358.266L272.656 358.887L272.946 359.54Z" fill="#962DFF" stroke="#962DFF" stroke-width="1.17442"/>
<path d="M428.73 352.386C428.99 352.526 429.313 352.451 429.485 352.212L454.95 316.736C455.053 316.593 455.086 316.411 455.04 316.241C454.994 316.07 454.873 315.93 454.712 315.858L453.949 315.517C453.695 315.403 453.395 315.484 453.233 315.711L428.543 350.106L403.962 336.869C403.877 336.823 403.781 336.798 403.684 336.798H377.451L351.193 323.056C351.11 323.013 351.018 322.99 350.925 322.989L324.706 322.802C324.571 322.801 324.439 322.846 324.334 322.931L298.346 343.786H273.009C272.685 343.786 272.422 344.049 272.422 344.374V345.069C272.422 345.393 272.685 345.656 273.009 345.656H298.921C299.055 345.656 299.184 345.611 299.289 345.527L325.266 324.68L350.503 324.858L376.771 338.601C376.855 338.645 376.949 338.668 377.044 338.668H403.272L428.73 352.386Z" fill="#4A3AFF" stroke="#4A3AFF" stroke-width="1.17442" stroke-linejoin="round"/>
<rect opacity="0.2" x="168.847" y="317.319" width="37.5798" height="6.7614" rx="3.3807" fill="#4A3AFF"/>
<rect x="168.847" y="332.691" width="10.0779" height="10.0794" rx="5.03894" fill="#4A3AFF"/>
<rect x="243.858" y="334.144" width="7.1758" height="60.8695" rx="3.5879" transform="rotate(90 243.858 334.144)" fill="#F5F4F9"/>
<rect x="168.847" y="348.511" width="10.0779" height="10.0794" rx="5.03894" fill="#962DFF"/>
<rect x="243.857" y="349.964" width="7.1758" height="60.8695" rx="3.5879" transform="rotate(90 243.857 349.964)" fill="#F5F4F9"/>
<path d="M511.83 576.801C513.943 574.044 516.92 570.04 520.24 565.11C521.226 563.681 522.252 562.152 523.238 560.582C520.582 558.704 518.222 556.439 516.236 553.862C515.473 552.665 514.977 551.317 514.782 549.91C514.588 548.504 514.7 547.072 515.11 545.712C515.574 544.575 516.469 543.668 517.6 543.189C518.731 542.71 520.006 542.699 521.145 543.157L521.588 543.358C525.008 545.37 525.612 552.413 524.908 555.874C524.908 556.095 524.022 558.651 523.56 559.898L525.39 557.001C526.296 555.552 527.201 554.002 528.086 552.513L529.374 550.119C529.837 549.314 530.179 548.489 530.581 547.644C531.165 546.437 531.688 545.129 532.231 543.861C529.472 542.469 526.941 540.664 524.727 538.508C523.786 537.439 523.089 536.178 522.683 534.813C522.276 533.447 522.171 532.01 522.373 530.6C522.672 529.39 523.44 528.347 524.508 527.702C525.575 527.057 526.855 526.862 528.066 527.16L528.408 527.26C532.11 528.689 533.8 535.611 533.599 539.152C533.599 539.152 533.478 539.997 533.338 540.883C533.82 539.615 534.303 538.347 534.746 537.039C536.013 533.337 537.18 529.514 538.387 525.691C538.629 524.906 538.89 524.121 539.132 523.316C536.3 521.885 533.696 520.04 531.406 517.843C530.466 516.777 529.769 515.519 529.363 514.158C528.956 512.796 528.85 511.362 529.052 509.955C529.196 509.357 529.457 508.793 529.819 508.296C530.181 507.799 530.638 507.379 531.164 507.059C531.689 506.74 532.272 506.527 532.88 506.433C533.488 506.34 534.108 506.367 534.706 506.514L535.088 506.615C538.79 508.023 540.48 514.966 540.279 518.487C540.279 518.608 540.138 519.493 539.957 520.499C540.641 518.487 541.345 516.475 542.109 514.462C543.391 511.011 544.904 507.65 546.636 504.401C543.684 502.951 540.97 501.057 538.589 498.787C537.649 497.721 536.952 496.464 536.545 495.102C536.139 493.74 536.033 492.306 536.235 490.899C536.379 490.301 536.639 489.738 537.002 489.241C537.364 488.744 537.821 488.323 538.346 488.004C538.872 487.684 539.455 487.471 540.063 487.378C540.671 487.284 541.291 487.311 541.888 487.458H542.27C545.972 488.887 547.662 495.809 547.461 499.331C547.461 499.592 546.918 502.771 546.676 503.918V503.798C548.451 500.637 550.512 497.647 552.833 494.863C554.876 492.354 557.066 489.969 559.392 487.72C561.544 485.708 563.617 483.816 565.427 482.247C566.433 481.402 567.379 480.637 568.264 479.953C568.264 479.953 570.437 475.687 570.618 475.446C572.63 472.528 578.203 468.101 581.985 469.228C582.581 469.423 583.132 469.735 583.606 470.145C584.079 470.556 584.466 471.057 584.744 471.62C585.021 472.182 585.183 472.794 585.221 473.42C585.259 474.046 585.171 474.673 584.963 475.264L584.782 475.707C584.085 476.946 583.126 478.018 581.973 478.849C580.819 479.679 579.498 480.248 578.102 480.516C574.928 480.866 571.719 480.73 568.586 480.114C567.661 480.838 566.715 481.643 565.669 482.549C563.838 484.158 561.806 486.01 559.633 488.143C559.07 488.726 558.486 489.35 557.923 489.974C558.873 489.252 559.86 488.58 560.881 487.962C563.999 486.311 570.94 484.943 573.837 487.7C574.273 488.132 574.618 488.646 574.854 489.213C575.09 489.779 575.212 490.386 575.212 491C575.212 491.614 575.09 492.221 574.854 492.787C574.618 493.354 574.273 493.868 573.837 494.3C573.719 494.424 573.592 494.539 573.455 494.642C572.264 495.419 570.919 495.928 569.512 496.133C568.105 496.338 566.67 496.235 565.307 495.829C562.316 494.664 559.521 493.049 557.018 491.04C555.77 492.409 554.543 493.837 553.336 495.407C551.102 498.206 549.129 501.203 547.441 504.361C547.396 504.566 547.307 504.758 547.179 504.924C547.682 504.421 550.68 501.846 550.901 501.685C553.819 499.673 560.639 497.56 563.758 499.995C564.714 500.777 565.321 501.908 565.445 503.137C565.57 504.367 565.202 505.596 564.421 506.554L564.059 506.957C562.946 507.859 561.649 508.507 560.258 508.855C558.868 509.202 557.419 509.241 556.012 508.969C552.824 508.119 549.794 506.76 547.039 504.945C545.447 508.132 544.062 511.419 542.894 514.784C542.009 517.28 541.224 519.835 540.44 522.411C541.124 521.767 543.9 519.372 544.121 519.231C547.039 517.219 553.839 515.106 556.977 517.521C557.933 518.314 558.537 519.452 558.658 520.688C558.779 521.925 558.406 523.158 557.621 524.121L557.279 524.483C556.168 525.389 554.871 526.039 553.48 526.387C552.089 526.735 550.638 526.772 549.232 526.495C546.072 525.649 543.06 524.326 540.299 522.572L539.273 526.073C538.166 529.916 537.06 533.76 535.872 537.522C535.45 538.83 534.987 540.098 534.545 541.386C535.591 540.44 537.522 538.79 537.703 538.649C540.621 536.637 547.421 534.625 550.559 536.959C551.517 537.762 552.117 538.91 552.231 540.155C552.344 541.399 551.96 542.637 551.163 543.599L550.861 543.921C549.75 544.827 548.453 545.478 547.062 545.825C545.671 546.173 544.22 546.21 542.814 545.934C539.761 545.129 536.85 543.86 534.183 542.171C533.418 544.183 532.613 546.376 531.728 548.388C531.326 549.234 530.963 550.139 530.521 550.944L529.273 553.379C528.368 555.009 527.523 556.518 526.638 558.007C526.195 558.771 525.753 559.476 525.33 560.22C526.235 559.114 527.724 557.383 527.865 557.242C530.46 554.828 536.858 551.688 540.319 553.62C540.846 553.933 541.306 554.347 541.674 554.838C542.041 555.329 542.308 555.888 542.459 556.482C542.61 557.076 542.643 557.694 542.556 558.301C542.468 558.908 542.262 559.492 541.948 560.019C541.948 560.16 541.767 560.301 541.667 560.442C540.72 561.504 539.552 562.346 538.245 562.909C536.938 563.472 535.524 563.743 534.102 563.701C530.87 563.332 527.71 562.484 524.727 561.186C523.64 562.977 522.574 564.707 521.548 566.297C518.268 571.368 515.371 575.453 513.299 578.37C511.227 581.288 509.959 582.797 509.959 582.797C509.852 582.957 509.713 583.092 509.549 583.193C509.386 583.295 509.203 583.36 509.012 583.385C508.822 583.409 508.628 583.393 508.445 583.337C508.261 583.281 508.091 583.186 507.947 583.059C507.796 582.945 507.67 582.801 507.576 582.637C507.482 582.473 507.422 582.292 507.399 582.104C507.377 581.916 507.392 581.726 507.445 581.544C507.498 581.363 507.586 581.193 507.706 581.047V581.047C509.277 579.836 510.666 578.406 511.83 576.801Z" fill="#7A6EFF"/>
<path d="M557.439 490.155C557.439 490.155 552.329 485.427 551.142 482.569C550.522 481.291 550.185 479.894 550.153 478.474C550.122 477.054 550.397 475.643 550.961 474.339C551.556 473.248 552.56 472.438 553.752 472.087C554.944 471.736 556.227 471.873 557.318 472.468L557.741 472.729C560.94 475.064 560.738 482.207 559.612 485.547C559.511 485.849 557.479 490.195 557.439 490.155Z" fill="#7A6EFF"/>
<path d="M506.318 578.693C505.372 576.318 503.984 572.938 502.133 568.974C501.61 567.827 501.026 566.619 500.423 565.372C498.238 566.342 495.917 566.974 493.542 567.243C492.497 567.273 491.457 567.076 490.495 566.666C489.533 566.257 488.671 565.643 487.969 564.869C487.42 564.139 487.182 563.222 487.307 562.317C487.431 561.413 487.908 560.594 488.633 560.039L488.955 559.838C491.49 558.429 496.198 560.723 498.109 562.474C498.23 562.595 499.517 564.084 500.121 564.869C499.739 564.124 499.376 563.38 498.974 562.615C498.411 561.508 497.787 560.361 497.163 559.234C496.841 558.651 496.499 558.087 496.157 557.504C495.815 556.92 495.433 556.377 495.051 555.814C494.669 555.25 493.884 554.164 493.28 553.339C491.363 554.546 489.274 555.455 487.084 556.035C486.054 556.226 484.994 556.19 483.98 555.929C482.965 555.668 482.02 555.189 481.209 554.526C480.889 554.206 480.635 553.827 480.462 553.409C480.289 552.991 480.2 552.543 480.2 552.091C480.2 551.639 480.289 551.191 480.462 550.773C480.635 550.355 480.889 549.976 481.209 549.656L481.39 549.395C483.684 547.604 488.693 549.153 490.826 550.622L491.812 551.447C491.208 550.669 490.584 549.884 489.941 549.093C488.07 546.899 486.118 544.706 484.166 542.513L482.959 541.145C480.987 542.393 478.836 543.336 476.582 543.942C475.555 544.132 474.499 544.096 473.487 543.835C472.476 543.574 471.534 543.096 470.727 542.432C470.407 542.113 470.153 541.733 469.98 541.315C469.807 540.898 469.718 540.45 469.718 539.998C469.718 539.545 469.807 539.097 469.98 538.68C470.153 538.262 470.407 537.882 470.727 537.563L470.988 537.321C473.282 535.53 478.292 537.08 480.444 538.529L481.571 539.494C480.525 538.287 479.559 537.08 478.533 535.832C476.826 533.72 475.272 531.487 473.886 529.152C471.857 530.463 469.638 531.454 467.307 532.09C466.28 532.28 465.224 532.244 464.212 531.983C463.201 531.722 462.259 531.244 461.452 530.58C460.811 529.932 460.451 529.057 460.451 528.146C460.451 527.234 460.811 526.359 461.452 525.711L461.714 525.469C463.987 523.678 468.997 525.228 471.149 526.677C471.31 526.797 473.161 528.347 473.745 528.91C472.434 526.597 471.33 524.173 470.445 521.666C469.644 519.426 468.972 517.142 468.433 514.825C467.91 512.672 467.568 510.68 467.287 508.909C467.126 507.943 467.025 507.078 466.904 506.253C466.904 506.253 465.053 503.275 464.892 503.073C463.806 500.699 463.122 495.507 465.275 493.556C465.96 492.963 466.851 492.664 467.755 492.724C468.659 492.784 469.503 493.199 470.103 493.878L470.345 494.2C470.862 495.109 471.175 496.12 471.261 497.162C471.348 498.205 471.207 499.254 470.848 500.236C469.87 502.37 468.567 504.338 466.985 506.072C467.105 506.937 467.246 507.842 467.427 508.828C467.749 510.599 468.132 512.571 468.715 514.704C468.856 515.267 469.037 515.871 469.198 516.455C469.198 515.408 469.037 513.959 469.057 513.819C469.198 511.243 471.069 506.313 473.785 505.569C474.665 505.356 475.594 505.502 476.367 505.973C477.14 506.445 477.695 507.204 477.909 508.084C477.919 508.218 477.919 508.352 477.909 508.486C477.947 509.531 477.756 510.571 477.35 511.534C476.943 512.497 476.331 513.359 475.555 514.06C473.731 515.503 471.695 516.657 469.52 517.481C469.902 518.769 470.345 520.097 470.868 521.505C471.791 523.972 472.935 526.349 474.288 528.608L474.55 528.991C474.409 528.488 473.926 525.63 473.906 525.409C473.765 522.833 474.992 517.722 477.708 516.676C478.554 516.364 479.489 516.401 480.308 516.778C481.126 517.155 481.762 517.842 482.074 518.688C482.126 518.812 482.167 518.94 482.195 519.07C482.355 520.103 482.284 521.158 481.989 522.16C481.693 523.162 481.179 524.086 480.485 524.866C478.741 526.529 476.762 527.926 474.61 529.011C476.011 531.23 477.557 533.354 479.237 535.369C480.465 536.859 481.792 538.327 483.12 539.796C482.959 539.112 482.497 536.456 482.497 536.255C482.336 533.679 483.583 528.568 486.299 527.522C487.145 527.21 488.08 527.247 488.899 527.624C489.717 528.001 490.353 528.688 490.665 529.534C490.717 529.657 490.757 529.785 490.786 529.916C490.945 530.949 490.875 532.004 490.579 533.006C490.284 534.007 489.77 534.932 489.076 535.712C487.343 537.38 485.369 538.777 483.221 539.857L485.052 541.869C487.064 544.022 489.075 546.175 490.967 548.348C491.631 549.113 492.254 549.878 492.979 550.642C492.777 549.636 492.476 547.785 492.456 547.624C492.315 545.028 493.542 539.937 496.258 538.891C497.104 538.579 498.039 538.616 498.857 538.993C499.676 539.37 500.311 540.057 500.624 540.903C500.679 541.025 500.72 541.154 500.745 541.285C500.904 542.318 500.834 543.373 500.538 544.375C500.243 545.376 499.729 546.301 499.034 547.081C497.377 548.707 495.477 550.065 493.401 551.105C494.447 552.393 495.413 553.681 496.379 555.009C496.761 555.592 497.204 556.156 497.546 556.739C497.888 557.323 498.25 557.886 498.592 558.45C499.276 559.637 499.92 560.744 500.604 561.85C500.906 562.434 501.187 562.977 501.489 563.52C501.147 562.534 500.604 560.945 500.584 560.784C500.04 558.248 500.483 553.037 503.018 551.588C503.435 551.409 503.884 551.315 504.338 551.31C504.791 551.306 505.242 551.391 505.663 551.561C506.083 551.731 506.466 551.983 506.789 552.302C507.112 552.621 507.369 553 507.545 553.419C507.862 554.424 507.953 555.486 507.81 556.53C507.668 557.574 507.295 558.573 506.72 559.456C505.268 561.347 503.546 563.015 501.61 564.406C502.314 565.754 502.998 567.082 503.622 568.43C505.634 572.455 507.062 575.775 508.068 578.169C509.074 580.564 509.577 581.952 509.577 581.952C509.662 582.209 509.644 582.488 509.528 582.732C509.412 582.976 509.206 583.165 508.953 583.26C508.825 583.304 508.689 583.323 508.554 583.314C508.419 583.306 508.287 583.271 508.165 583.211C508.044 583.151 507.935 583.068 507.846 582.966C507.757 582.864 507.688 582.745 507.645 582.616V582.616C507.281 581.283 506.837 579.973 506.318 578.693Z" fill="#7A6EFF"/>
<path d="M468.997 517.199C466.676 517.912 464.262 518.279 461.834 518.286C460.795 518.192 459.788 517.876 458.882 517.359C457.976 516.842 457.192 516.135 456.583 515.287C456.12 514.503 455.987 513.566 456.213 512.683C456.44 511.801 457.007 511.044 457.79 510.579L458.132 510.398C460.828 509.271 465.234 512.108 466.924 514.08C467.065 514.221 469.037 517.199 468.997 517.199Z" fill="#7A6EFF"/>
<path d="M509.134 575.896C509.577 572.455 510.14 567.505 510.522 561.549C510.643 559.838 510.744 558.027 510.824 556.156C507.59 555.86 504.417 555.087 501.408 553.862C500.141 553.219 499.03 552.305 498.154 551.186C497.278 550.066 496.658 548.768 496.338 547.383C496.253 546.77 496.29 546.146 496.446 545.547C496.602 544.948 496.875 544.386 497.249 543.892C497.623 543.399 498.09 542.984 498.624 542.671C499.158 542.359 499.749 542.155 500.362 542.07H500.865C504.889 542.07 508.913 547.866 510.039 551.226C510.039 551.427 510.663 554.063 510.925 555.412C510.905 554.27 510.946 553.128 511.045 551.991V543.942C511.045 543.016 510.905 542.131 510.844 541.205C510.723 539.857 510.542 538.489 510.361 537.181C507.278 537.363 504.185 537.078 501.187 536.336C499.832 535.885 498.591 535.147 497.549 534.171C496.507 533.195 495.689 532.004 495.151 530.681C494.963 530.095 494.893 529.477 494.944 528.863C494.995 528.249 495.167 527.651 495.449 527.104C495.731 526.556 496.118 526.07 496.588 525.672C497.059 525.274 497.603 524.973 498.189 524.786L498.773 524.645C502.676 524.021 507.625 529.152 509.215 532.291C509.215 532.412 509.536 533.096 509.858 533.941C509.637 532.593 509.416 531.245 509.154 529.917C508.37 526.073 507.484 522.19 506.579 518.286C506.398 517.481 506.237 516.676 506.056 515.851C502.886 516.055 499.703 515.77 496.62 515.006C495.265 514.563 494.022 513.829 492.98 512.856C491.937 511.883 491.12 510.694 490.584 509.372C490.396 508.785 490.326 508.168 490.377 507.554C490.428 506.94 490.6 506.342 490.882 505.795C491.164 505.247 491.551 504.76 492.021 504.363C492.492 503.965 493.036 503.664 493.622 503.476L494.206 503.335C498.109 502.712 503.058 507.843 504.647 510.982C504.647 511.103 505.03 511.928 505.392 512.873C504.929 510.74 504.507 508.627 504.145 506.495C503.522 502.861 503.139 499.191 502.998 495.508C499.736 495.707 496.462 495.429 493.28 494.683C491.923 494.236 490.681 493.499 489.638 492.522C488.596 491.546 487.779 490.353 487.245 489.028C487.057 488.442 486.986 487.824 487.037 487.21C487.088 486.596 487.26 485.998 487.542 485.451C487.824 484.903 488.211 484.417 488.682 484.019C489.152 483.621 489.696 483.32 490.282 483.133L490.846 482.992C494.749 482.368 499.698 487.499 501.308 490.638C501.308 490.88 502.555 493.898 502.917 495.005C502.863 491.379 503.133 487.757 503.722 484.179C504.211 480.984 504.883 477.82 505.734 474.701C506.539 471.804 507.424 469.188 508.249 466.894C508.691 465.667 509.134 464.54 509.536 463.493C509.536 463.493 509.295 458.724 509.315 458.423C509.577 454.901 512.172 448.241 516.015 447.315C516.62 447.189 517.244 447.184 517.851 447.299C518.459 447.415 519.037 447.65 519.553 447.991C520.069 448.331 520.513 448.77 520.859 449.283C521.204 449.795 521.445 450.371 521.568 450.977C521.577 451.132 521.577 451.286 521.568 451.44C521.58 452.861 521.284 454.268 520.7 455.564C520.117 456.859 519.259 458.013 518.188 458.946C515.621 460.849 512.778 462.349 509.758 463.393C509.355 464.479 508.933 465.647 508.49 466.975C507.726 469.269 506.881 471.884 506.156 474.782C505.975 475.567 505.794 476.412 505.613 477.217C506.197 475.909 507.042 474.138 507.142 473.977C509.013 470.979 514.365 466.27 518.208 467.216C519.4 467.545 520.412 468.334 521.024 469.409C521.635 470.484 521.794 471.758 521.467 472.951C521.426 473.122 521.372 473.29 521.306 473.454C520.668 474.728 519.76 475.848 518.644 476.734C517.529 477.62 516.233 478.252 514.848 478.585C511.674 479.068 508.445 479.068 505.271 478.585C504.889 480.396 504.547 482.247 504.285 484.199C503.779 487.744 503.584 491.326 503.702 494.904V495.528C503.883 494.844 505.171 491.101 505.291 490.86C506.82 487.66 511.629 482.408 515.552 482.931C516.16 483.032 516.742 483.251 517.265 483.576C517.788 483.901 518.242 484.326 518.601 484.827C518.96 485.328 519.216 485.895 519.356 486.495C519.496 487.095 519.516 487.716 519.415 488.324C519.424 488.478 519.424 488.633 519.415 488.787C518.915 490.118 518.132 491.325 517.122 492.325C516.111 493.326 514.896 494.096 513.56 494.582C510.39 495.445 507.105 495.811 503.823 495.669C504.047 499.236 504.504 502.785 505.191 506.293C505.674 508.869 506.277 511.485 506.921 514.101C507.183 513.195 508.37 509.734 508.49 509.493C509.999 506.293 514.808 501.041 518.731 501.565C519.338 501.66 519.92 501.874 520.443 502.195C520.967 502.516 521.423 502.937 521.783 503.435C522.144 503.932 522.403 504.495 522.546 505.093C522.688 505.691 522.711 506.311 522.614 506.917L522.493 507.42C522.006 508.755 521.23 509.967 520.222 510.968C519.213 511.97 517.997 512.737 516.659 513.215C513.499 514.064 510.231 514.438 506.961 514.322L507.846 517.864C508.812 521.747 509.858 525.631 510.663 529.474C510.965 530.822 511.206 532.15 511.448 533.498C511.89 532.15 512.715 529.756 512.816 529.474C514.325 526.275 519.153 521.023 523.056 521.546C523.663 521.641 524.245 521.856 524.769 522.177C525.293 522.498 525.748 522.919 526.109 523.416C526.47 523.913 526.729 524.477 526.871 525.074C527.014 525.672 527.037 526.292 526.939 526.898L526.819 527.401C526.331 528.737 525.556 529.948 524.548 530.95C523.539 531.951 522.323 532.718 520.984 533.197C517.94 534.037 514.785 534.41 511.629 534.303C512.031 536.517 512.373 538.71 512.615 540.903C512.615 541.849 512.856 542.815 512.876 543.721C512.896 544.626 512.876 545.552 513.017 546.457V554.345C513.258 552.936 513.661 550.703 513.721 550.502C514.747 547.121 518.691 541.185 522.654 541.105C523.89 541.115 525.072 541.614 525.943 542.492C526.813 543.37 527.302 544.557 527.302 545.793C527.312 545.974 527.312 546.155 527.302 546.336C527.014 547.728 526.426 549.04 525.578 550.18C524.73 551.32 523.643 552.261 522.393 552.937C519.425 554.266 516.269 555.128 513.037 555.492C513.037 557.504 513.037 559.617 512.856 561.529C512.574 567.565 512.132 572.556 511.75 576.037C511.367 579.518 511.086 581.55 511.086 581.55C511.061 581.731 511.001 581.906 510.908 582.064C510.816 582.222 510.693 582.36 510.548 582.47C510.402 582.58 510.236 582.661 510.059 582.707C509.882 582.752 509.697 582.763 509.516 582.737C509.153 582.683 508.825 582.488 508.603 582.194C508.381 581.901 508.283 581.533 508.329 581.168V581.168C508.696 579.427 508.965 577.667 509.134 575.896V575.896Z" fill="#7A6EFF"/>
<path d="M504.969 478.062C504.969 478.062 498.169 476.553 495.714 474.681C494.531 473.894 493.534 472.858 492.794 471.645C492.053 470.432 491.588 469.071 491.429 467.659C491.402 466.417 491.867 465.214 492.722 464.313C493.577 463.412 494.754 462.886 495.996 462.849H496.479C500.402 463.272 503.822 469.53 504.526 472.91C504.607 473.293 505.029 478.082 504.969 478.062Z" fill="#7A6EFF"/>
<path opacity="0.3" d="M347.943 258.119C349.148 261.435 351.364 264.288 354.279 266.276C357.194 268.263 360.66 269.284 364.186 269.194C366.008 269.149 367.81 268.804 369.519 268.173C372.649 267.032 375.371 264.988 377.34 262.3C379.309 259.612 380.437 256.401 380.581 253.071C380.726 249.742 379.88 246.445 378.15 243.597C376.421 240.749 373.886 238.477 370.866 237.07C367.846 235.663 364.477 235.183 361.184 235.69C357.891 236.198 354.823 237.671 352.367 239.923C349.911 242.175 348.178 245.105 347.387 248.342C346.596 251.579 346.782 254.977 347.923 258.108L347.943 258.119Z" fill="#FAFAFA"/>
<path opacity="0.4" d="M350.547 241.873L380.276 255.728C380.327 255.472 380.378 255.227 380.419 254.972C380.681 253.335 380.698 251.668 380.47 250.026V250.026L354.797 238.062C353.172 239.079 351.735 240.368 350.547 241.873Z" fill="#FAFAFA"/>
<path opacity="0.4" d="M338.959 247.038L376.323 264.439C378.921 262.172 380.959 259.334 382.278 256.148L341.485 237.135C339.895 240.198 339.031 243.587 338.959 247.038V247.038Z" fill="#FAFAFA"/>
<path d="M357.126 234.087C360.733 232.78 364.646 232.571 368.372 233.487C372.098 234.403 375.468 236.402 378.059 239.233C380.649 242.063 382.342 245.598 382.925 249.391C383.507 253.183 382.953 257.064 381.332 260.541C379.711 264.019 377.096 266.938 373.817 268.931C370.538 270.923 366.742 271.898 362.909 271.734C359.076 271.57 355.378 270.274 352.281 268.009C349.185 265.744 346.829 262.611 345.511 259.008C344.633 256.609 344.238 254.061 344.347 251.509C344.456 248.957 345.068 246.452 346.147 244.137C347.226 241.821 348.751 239.742 350.635 238.018C352.519 236.293 354.725 234.958 357.126 234.087V234.087ZM369.017 266.783C371.864 265.747 374.339 263.89 376.131 261.447C377.922 259.004 378.95 256.085 379.084 253.059C379.217 250.032 378.451 247.034 376.882 244.443C375.313 241.851 373.011 239.783 370.268 238.499C367.524 237.216 364.461 236.774 361.467 237.231C358.472 237.687 355.68 239.02 353.443 241.063C351.206 243.106 349.625 245.765 348.898 248.707C348.172 251.648 348.333 254.738 349.362 257.588C350.049 259.482 351.102 261.222 352.462 262.709C353.822 264.196 355.462 265.4 357.287 266.252C359.113 267.104 361.089 267.588 363.101 267.676C365.114 267.763 367.125 267.453 369.017 266.763V266.783Z" fill="#4A3AFF"/>
<path opacity="0.3" d="M357.126 234.087C360.733 232.78 364.646 232.571 368.372 233.487C372.098 234.403 375.468 236.402 378.059 239.233C380.649 242.063 382.342 245.598 382.925 249.391C383.507 253.183 382.953 257.064 381.332 260.541C379.711 264.019 377.096 266.938 373.817 268.931C370.538 270.923 366.742 271.898 362.909 271.734C359.076 271.57 355.378 270.274 352.281 268.009C349.185 265.744 346.829 262.611 345.511 259.008C344.633 256.609 344.238 254.061 344.347 251.509C344.456 248.957 345.068 246.452 346.147 244.137C347.226 241.821 348.751 239.742 350.635 238.018C352.519 236.293 354.725 234.958 357.126 234.087V234.087ZM369.017 266.783C371.864 265.747 374.339 263.89 376.131 261.447C377.922 259.004 378.95 256.085 379.084 253.059C379.217 250.032 378.451 247.034 376.882 244.443C375.313 241.851 373.011 239.783 370.268 238.499C367.524 237.216 364.461 236.774 361.467 237.231C358.472 237.687 355.68 239.02 353.443 241.063C351.206 243.106 349.625 245.765 348.898 248.707C348.172 251.648 348.333 254.738 349.362 257.588C350.049 259.482 351.102 261.222 352.462 262.709C353.822 264.196 355.462 265.4 357.287 266.252C359.113 267.104 361.089 267.588 363.101 267.676C365.114 267.763 367.125 267.453 369.017 266.763V266.783Z" fill="black"/>
<path d="M366.887 269.875C368.184 276.144 369.987 282.25 371.858 288.314C372.855 291.333 373.784 294.365 374.863 297.343L376.447 301.836C376.695 302.693 377.137 303.481 377.739 304.139C378.34 304.797 379.085 305.309 379.915 305.633C380.8 306.011 381.794 306.037 382.698 305.707C383.601 305.378 384.344 304.716 384.777 303.858C385.205 303.076 385.448 302.206 385.486 301.315C385.524 300.425 385.356 299.537 384.996 298.722L383.316 294.269C382.223 291.292 380.981 288.369 379.806 285.418C377.348 279.559 374.794 273.74 371.749 268.099C371.458 267.534 370.971 267.095 370.379 266.864C369.788 266.633 369.132 266.625 368.535 266.843C367.939 267.061 367.442 267.489 367.138 268.048C366.835 268.606 366.746 269.255 366.887 269.875V269.875Z" fill="#4A3AFF"/>
<path opacity="0.3" d="M366.887 269.875C368.184 276.144 369.987 282.25 371.858 288.314C372.855 291.333 373.784 294.365 374.863 297.343L376.447 301.836C376.695 302.693 377.137 303.481 377.739 304.139C378.34 304.797 379.085 305.309 379.915 305.633C380.8 306.011 381.794 306.037 382.698 305.707C383.601 305.378 384.344 304.716 384.777 303.858C385.205 303.076 385.448 302.206 385.486 301.315C385.524 300.425 385.356 299.537 384.996 298.722L383.316 294.269C382.223 291.292 380.981 288.369 379.806 285.418C377.348 279.559 374.794 273.74 371.749 268.099C371.458 267.534 370.971 267.095 370.379 266.864C369.788 266.633 369.132 266.625 368.535 266.843C367.939 267.061 367.442 267.489 367.138 268.048C366.835 268.606 366.746 269.255 366.887 269.875V269.875Z" fill="black"/>
<path d="M467.823 263.906C468.069 264.248 468.465 264.849 468.779 265.34L469.803 266.938C470.472 268.018 471.169 269.124 471.715 270.258C472.943 272.473 474.051 274.752 475.034 277.087C476.967 281.617 478.165 286.426 478.584 291.333V292.248V292.439C478.584 292.562 478.339 292.958 477.642 293.354C475.673 294.295 473.549 294.869 471.374 295.048C466.126 295.559 460.843 295.605 455.587 295.185L454.398 300.853C460.027 302.677 465.884 303.703 471.797 303.899C473.39 303.912 474.981 303.825 476.563 303.639C478.361 303.428 480.122 302.968 481.794 302.274C483.987 301.403 485.884 299.918 487.256 297.998C488 296.885 488.532 295.644 488.827 294.338C489.053 293.274 489.158 292.188 489.141 291.101C489.158 284.862 488 278.676 485.727 272.866C484.679 270.03 483.438 267.269 482.012 264.603C481.302 263.237 480.537 261.98 479.745 260.696C479.349 260.054 478.939 259.413 478.502 258.784C478.065 258.156 477.669 257.569 477.137 256.804L467.823 263.906Z" fill="#FFC1B4"/>
<path d="M471.907 244.907C476.632 246.054 487.803 264.685 487.803 264.685L462.771 275.052C462.771 275.052 458.25 260.874 461.091 255.206C464.041 249.305 465.529 243.336 471.907 244.907Z" fill="#4A3AFF"/>
<path opacity="0.2" d="M471.907 244.907C476.632 246.054 487.803 264.685 487.803 264.685L462.771 275.052C462.771 275.052 458.25 260.874 461.091 255.206C464.041 249.305 465.529 243.336 471.907 244.907Z" fill="black"/>
<path d="M454.535 294.597L443.064 293.382L449.441 303.025C449.441 303.025 456.761 302.355 458.632 297.971L454.535 294.597Z" fill="#FFC1B4"/>
<path d="M434.883 298.49L443.692 308.065L449.51 303.025L443.064 293.382L434.883 298.49Z" fill="#FFC1B4"/>
<path d="M469.626 572.511C470.648 572.486 471.665 572.348 472.658 572.101C472.708 572.088 472.752 572.06 472.787 572.021C472.821 571.982 472.842 571.934 472.849 571.883C472.858 571.832 472.853 571.779 472.834 571.73C472.815 571.682 472.782 571.64 472.739 571.61C472.343 571.35 468.902 569.11 467.55 569.711C467.4 569.78 467.27 569.886 467.175 570.021C467.079 570.155 467.02 570.312 467.004 570.476C466.952 570.736 466.966 571.004 467.045 571.257C467.123 571.51 467.264 571.739 467.454 571.924C468.087 572.369 468.855 572.577 469.626 572.511V572.511ZM471.879 571.719C469.885 572.115 468.397 572.047 467.782 571.514C467.656 571.393 467.564 571.241 467.516 571.073C467.468 570.905 467.465 570.727 467.509 570.558C467.508 570.482 467.53 570.408 467.571 570.345C467.613 570.282 467.672 570.232 467.741 570.203C468.479 569.902 470.472 570.845 471.879 571.719V571.719Z" fill="#4A3AFF"/>
<path d="M472.59 572.115C472.661 572.112 472.729 572.082 472.779 572.032C472.83 571.981 472.859 571.913 472.863 571.842C472.863 571.705 472.863 568.414 471.634 567.307C471.483 567.162 471.302 567.054 471.103 566.99C470.904 566.926 470.693 566.908 470.487 566.939C470.269 566.941 470.059 567.018 469.893 567.158C469.726 567.297 469.612 567.49 469.572 567.703C469.312 568.987 471.374 571.46 472.453 572.074C472.494 572.1 472.541 572.115 472.59 572.115ZM470.678 567.471C470.898 567.472 471.109 567.561 471.265 567.717C471.976 568.777 472.339 570.033 472.303 571.309C471.224 570.449 469.94 568.578 470.104 567.813C470.104 567.676 470.2 567.526 470.555 567.485L470.678 567.471Z" fill="#4A3AFF"/>
<path d="M417.595 572.511C418.806 572.485 420.013 572.348 421.2 572.101C421.253 572.093 421.302 572.066 421.339 572.027C421.376 571.987 421.399 571.937 421.405 571.883C421.417 571.827 421.41 571.768 421.385 571.716C421.361 571.664 421.319 571.622 421.268 571.596C420.749 571.336 416.215 569.001 414.809 569.766C414.675 569.836 414.563 569.94 414.481 570.067C414.4 570.193 414.353 570.339 414.344 570.49C414.302 570.739 414.324 570.995 414.408 571.234C414.492 571.473 414.634 571.686 414.822 571.855C415.646 572.381 416.623 572.612 417.595 572.511ZM420.326 571.719C417.786 572.142 415.901 572.033 415.205 571.405C415.091 571.295 415.004 571.16 414.952 571.01C414.9 570.861 414.883 570.701 414.904 570.544C414.905 570.481 414.924 570.42 414.957 570.367C414.991 570.314 415.039 570.271 415.095 570.244C415.833 569.834 418.428 570.845 420.299 571.719H420.326Z" fill="#4A3AFF"/>
<path d="M421.144 572.115C421.192 572.134 421.246 572.134 421.294 572.115C421.334 572.087 421.366 572.051 421.387 572.008C421.409 571.965 421.419 571.917 421.417 571.869C421.417 571.746 421.158 568.659 419.724 567.471C419.52 567.292 419.281 567.157 419.023 567.075C418.764 566.993 418.491 566.965 418.222 566.993C417.471 567.075 417.252 567.457 417.211 567.771C416.993 569.137 419.642 571.514 421.035 572.142L421.144 572.115ZM418.413 567.471C418.759 567.473 419.094 567.599 419.355 567.826C420.157 568.84 420.633 570.074 420.721 571.364C419.355 570.517 417.512 568.632 417.648 567.799C417.648 567.799 417.648 567.526 418.181 567.485L418.413 567.471Z" fill="#4A3AFF"/>
<path d="M451.954 217.234C450.588 224.063 447.475 237.722 452.2 242.298C452.2 242.298 450.301 249.127 437.683 249.127C423.821 249.127 431.1 242.298 431.1 242.298C438.68 240.495 438.529 234.881 437.232 229.609L451.954 217.234Z" fill="#FFC1B4"/>
<path d="M433.722 571.842H422.278L421.69 545.344H433.135L433.722 571.842Z" fill="#FFC1B4"/>
<path d="M485.699 571.842H474.255L470.745 545.344H482.19L485.699 571.842Z" fill="#FFC1B4"/>
<path d="M473.558 570.517H486.409C486.629 570.512 486.843 570.589 487.01 570.733C487.176 570.877 487.283 571.077 487.31 571.296L488.676 581.471C488.699 581.729 488.668 581.989 488.585 582.235C488.502 582.48 488.369 582.705 488.194 582.897C488.02 583.088 487.807 583.241 487.571 583.346C487.334 583.451 487.078 583.506 486.819 583.507C482.339 583.425 480.182 583.165 474.528 583.165C471.059 583.165 465.979 583.52 461.172 583.52C456.365 583.52 456.146 578.767 458.154 578.344C467.126 576.418 468.56 573.754 471.592 571.214C472.145 570.758 472.841 570.512 473.558 570.517V570.517Z" fill="#040034"/>
<path d="M421.896 570.517H434.747C434.968 570.514 435.182 570.592 435.35 570.735C435.518 570.878 435.629 571.077 435.662 571.295L437.027 581.471C437.054 581.729 437.027 581.989 436.946 582.236C436.865 582.482 436.734 582.708 436.56 582.901C436.386 583.093 436.174 583.246 435.936 583.35C435.699 583.455 435.443 583.508 435.184 583.506C430.704 583.424 428.547 583.165 422.893 583.165C419.41 583.165 412.213 583.52 407.42 583.52C402.626 583.52 402.394 578.767 404.388 578.343C413.374 576.417 416.911 573.754 419.957 571.213C420.501 570.761 421.188 570.514 421.896 570.517V570.517Z" fill="#040034"/>
<path d="M421.691 545.358L421.992 559.003H433.436L433.135 545.358H421.691Z" fill="#FB8A72"/>
<path d="M482.19 545.358H470.745L472.562 559.003H484.006L482.19 545.358Z" fill="#FB8A72"/>
<path d="M411.749 245.235C411.749 245.235 406.287 247.16 416.761 314.279H463.194C462.538 295.376 462.593 283.711 471.879 244.907C465.382 243.563 458.796 242.692 452.173 242.298C445.148 241.806 438.098 241.806 431.073 242.298C422.033 243.131 411.749 245.235 411.749 245.235Z" fill="#4A3AFF"/>
<path opacity="0.2" d="M411.749 245.235C411.749 245.235 406.287 247.16 416.761 314.279H463.194C462.538 295.376 462.593 283.711 471.879 244.907C465.382 243.563 458.796 242.692 452.173 242.298C445.148 241.806 438.098 241.806 431.073 242.298C422.033 243.131 411.749 245.235 411.749 245.235Z" fill="black"/>
<path d="M407.992 257.965C406.995 263.824 405.698 269.957 404.237 275.803C403.486 278.74 402.639 281.635 401.697 284.449C400.817 287.202 399.744 289.891 398.487 292.494C397.917 293.694 397.265 294.853 396.535 295.963C396.193 296.496 395.838 296.947 395.483 297.411C395.274 297.686 395.041 297.942 394.786 298.176C394.457 298.5 394.019 298.69 393.557 298.709C392.646 298.695 391.75 298.475 390.935 298.067C388.517 296.856 386.29 295.296 384.326 293.436C383.26 292.453 382.181 291.415 381.13 290.349C380.078 289.284 379.04 288.109 378.098 287.058L373.209 290.158C373.955 291.674 374.785 293.147 375.695 294.57C376.577 295.989 377.539 297.357 378.576 298.668C380.741 301.594 383.398 304.122 386.429 306.139C388.315 307.384 390.457 308.187 392.697 308.488C395.41 308.822 398.157 308.22 400.481 306.781C401.524 306.115 402.482 305.326 403.336 304.432C404.002 303.713 404.631 302.961 405.22 302.178C406.315 300.746 407.31 299.24 408.197 297.671C411.323 291.704 413.765 285.404 415.476 278.89C416.35 275.735 417.17 272.579 417.825 269.329C418.481 266.078 419.095 263.005 419.573 259.645L407.992 257.965Z" fill="#FFC1B4"/>
<path d="M411.748 245.235C407.023 246.437 403.554 265.846 403.554 265.846L421.663 278.207C421.663 278.207 429.078 255.096 425.487 249.92C421.786 244.511 418.631 243.486 411.748 245.235Z" fill="#4A3AFF"/>
<path opacity="0.2" d="M411.748 245.235C407.023 246.437 403.554 265.846 403.554 265.846L421.663 278.207C421.663 278.207 429.078 255.096 425.487 249.92C421.786 244.511 418.631 243.486 411.748 245.235Z" fill="black"/>
<path d="M373.852 291.046L367.652 282.195L378.427 281.963C378.427 281.963 380.967 287.085 379.246 291.524L373.852 291.046Z" fill="#FFC1B4"/>
<path d="M366.682 277.578L367.01 276.718C367.082 276.532 367.197 276.365 367.345 276.231C367.494 276.097 367.672 276.001 367.865 275.949C368.058 275.897 368.26 275.891 368.456 275.932C368.651 275.973 368.834 276.06 368.99 276.185L372.035 278.617C372.478 278.975 373.021 279.185 373.589 279.22C374.157 279.254 374.722 279.11 375.204 278.808L376.146 277.742C376.238 277.631 376.354 277.541 376.485 277.479C376.616 277.417 376.759 277.385 376.904 277.385C377.049 277.385 377.192 277.417 377.323 277.479C377.454 277.541 377.57 277.631 377.662 277.742L377.894 278.016C378.388 278.617 378.701 279.346 378.796 280.119L379.328 284.572L377.061 282.782L367.638 282.168L366.764 280.283C366.569 279.861 366.461 279.404 366.447 278.939C366.433 278.474 366.513 278.012 366.682 277.578V277.578Z" fill="#FFC1B4"/>
<path d="M451.585 200.147C453.456 211.361 454.48 216.059 450.219 223.052C443.801 233.556 429.652 233.488 424.49 223.052C419.833 213.696 417.566 196.937 427.344 189.985C429.483 188.437 431.983 187.465 434.605 187.163C437.227 186.86 439.883 187.238 442.318 188.258C444.752 189.279 446.883 190.908 448.506 192.99C450.129 195.072 451.189 197.537 451.585 200.147Z" fill="#FFC1B4"/>
<path d="M421.636 263.183C410.71 276.595 431.195 293.382 456.72 288.055C493.265 280.406 462.182 264.548 474.323 253.048C486.464 241.547 475.798 234.39 468.41 225.853C461.021 217.317 460.462 217.057 461.008 200.694C461.554 184.331 443.159 180.206 429.379 184.877C419.355 188.292 423.916 203.835 429.748 211.826C435.579 219.816 419.642 224.706 420.693 235.633C421.745 246.56 431.892 250.658 421.636 263.183Z" fill="#040034"/>
<path d="M438.229 183.156C426.512 181.913 418.687 183.415 417.744 193.14C416.802 202.865 431.21 208.547 431.21 208.547L438.229 183.156Z" fill="#040034"/>
<path d="M433.298 209.927C433.554 212.116 432.942 214.318 431.591 216.059C429.775 218.34 427.18 217.138 426.265 214.543C425.432 212.208 425.391 208.192 427.89 206.84C428.44 206.557 429.052 206.415 429.671 206.429C430.289 206.442 430.894 206.61 431.431 206.916C431.969 207.223 432.421 207.659 432.747 208.185C433.073 208.71 433.262 209.309 433.298 209.927Z" fill="#FFC1B4"/>
<path d="M429.038 314.293C429.038 314.293 431.606 337.868 435.02 366.401C437.205 384.608 439.731 404.837 442.162 422.252C442.763 426.664 443.378 430.884 443.965 434.859C449.291 470.604 469.817 556.421 469.817 556.421H485.413C485.413 556.421 476.7 473.527 474.105 438.164C467.536 348.713 477.97 335.082 463.18 314.348L429.038 314.293Z" fill="#040034"/>
<path d="M467.248 556.626H487.979L487.624 549.251L465.541 548.691L467.248 556.626Z" fill="#4A3AFF"/>
<path opacity="0.8" d="M467.248 556.626H487.979L487.624 549.251L465.541 548.691L467.248 556.626Z" fill="white"/>
<path opacity="0.4" d="M435.02 366.401C437.205 384.608 439.731 404.837 442.162 422.252C445.795 403.758 453.989 358.056 441.111 350.024C438.01 354.122 436.085 359.845 435.02 366.401Z" fill="black"/>
<path d="M416.761 314.28C416.761 314.28 409.373 400.22 409.933 435.105C410.479 471.396 419.629 556.367 419.629 556.367H435.047C435.047 556.367 436.741 473.513 438.339 437.877C440.087 399.018 450.78 314.28 450.78 314.28H416.761Z" fill="#040034"/>
<path d="M417.252 556.626H437.601L437.969 549.251L415.545 548.691L417.252 556.626Z" fill="#4A3AFF"/>
<path opacity="0.8" d="M417.252 556.626H437.601L437.969 549.251L415.545 548.691L417.252 556.626Z" fill="white"/>
<path d="M463.931 311.562L466.007 315.659C466.157 315.987 465.774 316.315 465.242 316.315H416.515C416.105 316.315 415.75 316.11 415.737 315.85L415.341 311.753C415.341 311.466 415.682 311.22 416.133 311.22H463.18C463.324 311.207 463.469 311.231 463.6 311.291C463.732 311.351 463.846 311.444 463.931 311.562V311.562Z" fill="#4A3AFF"/>
<path opacity="0.5" d="M463.931 311.562L466.007 315.659C466.157 315.987 465.774 316.315 465.242 316.315H416.515C416.105 316.315 415.75 316.11 415.737 315.85L415.341 311.753C415.341 311.466 415.682 311.22 416.133 311.22H463.18C463.324 311.207 463.469 311.231 463.6 311.291C463.732 311.351 463.846 311.444 463.931 311.562V311.562Z" fill="white"/>
<path d="M457.635 316.793H458.892C459.151 316.793 459.342 316.67 459.329 316.506L458.769 311.042C458.769 310.892 458.537 310.756 458.277 310.756H457.021C456.775 310.756 456.584 310.892 456.597 311.042L457.157 316.506C457.116 316.697 457.335 316.793 457.635 316.793Z" fill="#040034"/>
<path d="M427.044 316.793H428.301C428.546 316.793 428.738 316.67 428.724 316.506L428.178 311.042C428.178 310.892 427.932 310.756 427.686 310.756H426.43C426.17 310.756 425.979 310.892 425.993 311.042L426.553 316.506C426.566 316.697 426.785 316.793 427.044 316.793Z" fill="#040034"/>
<path d="M178.277 480.821C180.291 479.402 182.462 476.877 182.533 474.21C182.559 473.585 182.455 472.961 182.226 472.379C181.997 471.797 181.649 471.269 181.205 470.829C180.76 470.39 180.228 470.048 179.643 469.826C179.058 469.605 178.434 469.508 177.809 469.542C174.05 469.883 170.717 475.784 169.922 479.062C169.922 479.345 169.355 483.899 169.426 483.885C169.497 483.871 175.894 482.509 178.277 480.821Z" fill="#7A6EFF"/>
<path d="M145.808 551.955C145.718 551.449 145.521 550.967 145.232 550.543C144.942 550.118 144.565 549.76 144.127 549.492C143.689 549.224 143.198 549.051 142.688 548.987C142.178 548.922 141.661 548.967 141.169 549.117C138.332 550.096 136.729 555.416 136.772 558.169C136.772 558.339 137.041 560.41 137.197 561.46C136.871 560.651 136.559 559.829 136.233 558.977C135.765 557.743 135.311 556.438 134.814 555.161L134.176 553.132C133.949 552.451 133.807 551.714 133.623 551.089C133.367 550.068 133.155 549.004 132.942 547.94C135.248 547.3 137.439 546.304 139.439 544.989C140.985 543.57 142.559 541.485 142.403 539.314C142.385 538.804 142.259 538.304 142.034 537.845C141.809 537.387 141.49 536.982 141.098 536.655C140.706 536.328 140.249 536.088 139.758 535.95C139.267 535.811 138.752 535.778 138.247 535.852C135.226 536.392 132.899 541.414 132.573 544.138C132.573 544.223 132.573 544.804 132.573 545.556C132.403 544.507 132.218 543.471 132.077 542.407C131.651 539.399 131.325 536.321 130.984 533.242C130.914 532.589 130.828 531.951 130.757 531.313C133.128 530.648 135.386 529.629 137.453 528.291C138.999 526.872 140.573 524.787 140.417 522.616C140.397 522.107 140.269 521.607 140.044 521.15C139.818 520.693 139.499 520.288 139.108 519.962C138.716 519.636 138.26 519.396 137.77 519.256C137.28 519.117 136.766 519.082 136.261 519.154C133.24 519.693 130.914 524.716 130.587 527.439C130.587 527.539 130.587 528.234 130.587 529C130.374 527.34 130.148 525.666 129.864 524.02C129.4 521.195 128.751 518.404 127.92 515.664C128.303 515.551 133.084 514.104 134.829 512.586C136.36 511.167 137.949 509.081 137.779 506.911C137.76 506.401 137.635 505.9 137.41 505.442C137.185 504.984 136.866 504.578 136.474 504.252C136.082 503.925 135.625 503.685 135.134 503.547C134.643 503.408 134.128 503.375 133.623 503.449C130.601 503.988 128.275 509.011 127.949 511.734C127.949 511.919 127.864 514.444 127.878 515.338C127.872 515.305 127.872 515.271 127.878 515.239C126.987 512.572 125.862 509.99 124.516 507.521C123.33 505.307 122.013 503.166 120.573 501.108C119.254 499.179 117.934 497.505 116.743 496.029C116.104 495.235 115.495 494.511 114.927 493.859C114.927 493.859 113.906 490.298 113.807 490.071C112.714 487.56 109.126 483.346 106.062 483.658C105.556 483.722 105.07 483.891 104.635 484.156C104.2 484.42 103.825 484.774 103.536 485.193C103.247 485.612 103.05 486.088 102.957 486.588C102.864 487.089 102.878 487.604 102.998 488.099C103.423 490.227 105.523 491.858 107.381 492.752C109.744 493.495 112.209 493.864 114.686 493.845C115.268 494.554 115.878 495.263 116.53 496.143C117.679 497.647 118.97 499.349 120.232 501.293C120.573 501.818 120.913 502.385 121.254 502.924C120.488 502.13 119.424 501.037 119.296 500.952C117.168 499.221 112.048 497.136 109.48 498.81C109.06 499.101 108.707 499.478 108.442 499.915C108.177 500.352 108.007 500.84 107.943 501.347C107.879 501.854 107.922 502.369 108.069 502.858C108.217 503.347 108.465 503.8 108.799 504.187C109.573 504.951 110.501 505.539 111.521 505.914C112.542 506.288 113.631 506.44 114.714 506.358C116.842 506.358 120.871 504.371 121.807 503.946C122.559 505.166 123.225 506.443 123.977 507.819C125.253 510.284 126.306 512.857 127.126 515.508C127.126 515.664 127.126 515.835 127.24 515.991C126.928 515.522 125.041 513.153 124.885 512.969C122.956 511.011 118.09 508.372 115.353 509.762C114.903 510.005 114.51 510.339 114.198 510.744C113.887 511.149 113.664 511.615 113.545 512.112C113.426 512.609 113.413 513.125 113.507 513.627C113.601 514.129 113.8 514.606 114.09 515.026C115.253 516.842 117.807 517.622 119.849 517.778C122.204 517.963 127.084 516.161 127.268 516.09C128.01 518.76 128.578 521.476 128.97 524.219C129.268 526.248 129.495 528.305 129.694 530.39C129.282 529.795 127.509 527.553 127.367 527.411C125.438 525.453 120.573 522.829 117.835 524.205C117.386 524.447 116.992 524.782 116.681 525.187C116.369 525.592 116.147 526.058 116.027 526.554C115.908 527.051 115.895 527.567 115.989 528.069C116.083 528.572 116.282 529.048 116.573 529.468C117.736 531.298 120.289 532.065 122.332 532.221C124.63 532.405 129.311 530.703 129.708 530.561C129.807 531.497 129.892 532.448 129.977 533.398C130.261 536.491 130.516 539.584 130.871 542.634C130.999 543.684 131.155 544.719 131.311 545.755C130.658 544.89 129.424 543.343 129.311 543.216C127.381 541.272 122.516 538.633 119.778 540.023C119.328 540.263 118.934 540.595 118.621 540.998C118.308 541.401 118.084 541.866 117.963 542.362C117.843 542.858 117.829 543.373 117.921 543.875C118.014 544.376 118.212 544.853 118.502 545.273C119.679 547.103 122.232 547.869 124.275 548.025C126.706 547.869 129.099 547.338 131.367 546.45C131.637 548.181 131.935 549.883 132.318 551.543C132.502 552.267 132.644 552.962 132.857 553.671C133.07 554.381 133.24 555.09 133.438 555.714C133.892 557.133 134.304 558.367 134.758 559.644C134.985 560.283 135.211 560.878 135.438 561.503C134.914 560.524 134.02 558.992 133.935 558.864C132.332 556.651 127.92 553.303 124.998 554.253C124.518 554.425 124.079 554.696 123.711 555.049C123.342 555.402 123.052 555.828 122.859 556.301C122.666 556.773 122.575 557.281 122.592 557.791C122.609 558.301 122.733 558.802 122.956 559.261C123.835 561.247 126.247 562.396 128.233 562.865C130.218 563.333 135.169 562.453 135.736 562.34C136.304 563.858 136.871 565.333 137.41 566.709C139.155 571.051 140.758 574.597 141.921 577.066C143.084 579.534 143.808 580.925 143.808 580.925C143.942 581.166 144.166 581.345 144.431 581.425C144.695 581.504 144.981 581.478 145.226 581.35C145.465 581.213 145.642 580.989 145.721 580.726C145.8 580.462 145.775 580.178 145.652 579.932C145.652 579.932 144.928 578.598 143.722 576.172C142.517 573.746 140.885 570.284 139.041 566.028C138.517 564.794 137.978 563.489 137.439 562.141C137.992 561.872 142.318 559.786 143.765 558.055C145.212 556.324 146.29 554.069 145.808 551.955Z" fill="#7A6EFF"/>
<path d="M121.807 503.35C121.807 503.35 126.389 500.512 127.708 498.512C128.843 496.795 129.793 494.256 129.126 492.27C128.972 491.784 128.718 491.336 128.379 490.955C128.041 490.574 127.626 490.268 127.162 490.058C126.697 489.848 126.194 489.738 125.685 489.735C125.175 489.733 124.671 489.837 124.204 490.042C121.367 491.347 120.516 496.809 120.871 499.533C120.871 499.76 121.807 503.378 121.807 503.35Z" fill="#7A6EFF"/>
<path d="M191.625 480.821C193.994 482.58 200.49 483.886 200.49 483.886C200.49 483.886 200.065 479.346 199.994 479.062C199.242 475.785 195.88 469.883 192.121 469.542C191.496 469.506 190.871 469.601 190.285 469.822C189.699 470.043 189.166 470.385 188.721 470.825C188.276 471.265 187.928 471.794 187.7 472.377C187.472 472.96 187.369 473.585 187.398 474.21C187.426 476.806 189.596 479.261 191.625 480.821Z" fill="#7A6EFF"/>
<path d="M218.576 543.74C214.817 543.896 211.143 549.614 210.235 552.863C210.235 553.047 209.838 555.189 209.639 556.551C209.639 555.728 209.639 554.948 209.639 554.111C209.639 552.451 209.554 550.791 209.483 549.018C209.483 548.167 209.37 547.301 209.299 546.422C209.228 545.542 209.1 544.634 209.001 543.74C208.732 541.655 208.363 539.569 207.937 537.456C209.356 537.456 214.547 537.299 216.831 536.25C219.115 535.2 221.725 533.214 222.292 530.575C222.45 529.968 222.478 529.335 222.374 528.716C222.27 528.098 222.036 527.509 221.687 526.987C221.339 526.466 220.884 526.024 220.353 525.691C219.821 525.358 219.225 525.142 218.604 525.056C214.859 524.616 210.363 529.724 208.973 532.802C208.888 532.987 208.136 535.299 207.753 536.576C207.483 535.313 207.228 534.051 206.93 532.788C206.036 529.128 205.015 525.453 204.022 521.779C203.71 520.658 203.426 519.523 203.129 518.402C203.937 518.402 209.838 518.402 212.335 517.182C214.831 515.962 217.228 514.146 217.796 511.507C217.952 510.901 217.978 510.268 217.872 509.65C217.767 509.033 217.533 508.445 217.185 507.924C216.837 507.403 216.383 506.961 215.853 506.628C215.322 506.294 214.728 506.077 214.108 505.989C210.363 505.563 205.88 510.67 204.49 513.735C204.377 513.962 203.299 517.296 203.072 518.161C202.419 515.678 201.795 513.21 201.284 510.741C200.578 507.424 200.09 504.064 199.823 500.683C200.263 500.683 206.505 500.683 209.086 499.463C211.37 498.413 213.98 496.427 214.562 493.788C214.715 493.18 214.739 492.547 214.632 491.929C214.525 491.312 214.289 490.724 213.94 490.203C213.591 489.683 213.136 489.242 212.605 488.908C212.075 488.575 211.48 488.357 210.859 488.269C207.114 487.843 202.632 492.951 201.242 496.015C201.128 496.256 199.979 499.846 199.823 500.498C199.823 500.314 199.823 500.101 199.823 499.902C199.634 496.499 199.748 493.085 200.164 489.702C200.377 487.829 200.675 486.042 201.015 484.325C202.235 484.453 207.653 484.935 210.136 484.098C212.618 483.261 215.342 481.629 216.193 479.104C216.411 478.518 216.505 477.892 216.466 477.268C216.428 476.643 216.259 476.034 215.97 475.479C215.681 474.924 215.279 474.436 214.79 474.046C214.3 473.656 213.734 473.374 213.129 473.217C209.441 472.379 204.419 476.962 202.703 479.856C202.618 480.012 201.838 481.715 201.284 482.977C201.441 482.197 201.597 481.388 201.767 480.651C202.405 477.813 203.185 475.359 203.838 473.146C204.235 471.897 204.618 470.762 204.987 469.712C206.221 469.216 211.157 467.187 212.944 465.329C214.732 463.47 216.42 460.732 216.008 458.107C215.935 457.485 215.731 456.885 215.41 456.347C215.089 455.809 214.658 455.345 214.145 454.984C213.632 454.624 213.049 454.376 212.434 454.257C211.819 454.137 211.186 454.149 210.576 454.291C206.93 455.242 204.59 461.626 204.391 464.988C204.391 465.272 204.646 469.854 204.703 469.826H204.774C204.405 470.833 204.008 471.911 203.597 473.103C202.873 475.302 202.065 477.799 201.37 480.58C200.584 483.563 199.973 486.59 199.54 489.645C199.045 493.064 198.855 496.521 198.972 499.973V500.101C198.604 499.065 197.469 496.185 197.355 495.987C195.767 493.007 190.944 488.212 187.241 488.893C186.412 489.042 185.649 489.443 185.057 490.042C184.467 489.44 183.703 489.038 182.873 488.893C179.17 488.226 174.362 493.022 172.773 495.987C172.659 496.185 171.51 499.065 171.142 500.101C171.142 500.101 171.142 500.016 171.142 499.973C171.254 496.52 171.06 493.064 170.56 489.645C170.125 486.592 169.519 483.565 168.744 480.58C168.049 477.742 167.241 475.302 166.503 473.103C166.092 471.911 165.709 470.833 165.326 469.826H165.397C165.397 469.826 165.723 465.272 165.709 464.988C165.524 461.626 163.17 455.242 159.524 454.291C158.914 454.149 158.281 454.137 157.666 454.257C157.05 454.376 156.467 454.624 155.955 454.984C155.442 455.345 155.011 455.809 154.69 456.347C154.369 456.885 154.165 457.485 154.091 458.107C153.68 460.732 155.411 463.527 157.155 465.329C158.9 467.13 163.879 469.216 165.113 469.712C165.482 470.762 165.865 471.897 166.276 473.146C166.957 475.359 167.695 477.87 168.333 480.651C168.503 481.388 168.659 482.197 168.829 482.977C168.276 481.715 167.51 480.012 167.411 479.856C165.695 477.019 160.673 472.379 156.999 473.217C156.393 473.372 155.825 473.653 155.335 474.042C154.844 474.432 154.441 474.92 154.152 475.476C153.863 476.031 153.694 476.642 153.657 477.267C153.62 477.892 153.714 478.518 153.935 479.104C154.786 481.629 157.595 483.36 159.978 484.098C162.361 484.836 167.879 484.453 169.113 484.325C169.439 486.042 169.737 487.829 169.95 489.702C170.371 493.085 170.49 496.498 170.305 499.902C170.305 500.101 170.305 500.314 170.234 500.498C170.078 499.846 168.915 496.242 168.815 496.015C167.397 492.951 162.929 487.843 159.184 488.269C158.564 488.357 157.969 488.575 157.439 488.908C156.909 489.242 156.455 489.683 156.107 490.204C155.759 490.725 155.524 491.313 155.419 491.931C155.314 492.548 155.34 493.181 155.496 493.788C156.063 496.384 158.673 498.37 160.957 499.463C163.539 500.654 169.78 500.683 170.22 500.683C169.939 504.073 169.441 507.443 168.73 510.77C168.205 513.238 167.581 515.707 166.929 518.189C166.702 517.324 165.624 513.933 165.51 513.763C164.092 510.699 159.624 505.591 155.879 506.017C155.259 506.105 154.664 506.323 154.134 506.656C153.604 506.99 153.15 507.431 152.802 507.952C152.454 508.473 152.219 509.061 152.114 509.679C152.009 510.296 152.035 510.929 152.191 511.536C152.758 514.132 155.368 516.118 157.652 517.211C160.148 518.36 166.063 518.431 166.858 518.431C166.56 519.551 166.276 520.686 165.964 521.807C164.971 525.482 163.95 529.156 163.127 532.816C162.815 534.079 162.56 535.342 162.29 536.604C161.907 535.327 161.155 533.015 161.07 532.831C159.652 529.752 155.184 524.645 151.439 525.084C150.819 525.172 150.224 525.39 149.694 525.724C149.164 526.057 148.71 526.499 148.362 527.019C148.014 527.54 147.779 528.129 147.674 528.746C147.569 529.364 147.595 529.996 147.751 530.603C148.318 533.199 150.928 535.171 153.212 536.278C155.496 537.385 160.631 537.47 162.106 537.484C161.68 539.598 161.312 541.74 161.042 543.769C160.943 544.663 160.787 545.585 160.744 546.45C160.702 547.316 160.616 548.195 160.56 549.046C160.489 550.82 160.432 552.48 160.418 554.139C160.418 554.977 160.418 555.757 160.418 556.58C160.219 555.161 159.865 553.075 159.808 552.891C158.9 549.642 155.24 543.925 151.467 543.769C150.842 543.764 150.222 543.891 149.649 544.14C149.075 544.39 148.56 544.758 148.138 545.219C147.715 545.68 147.394 546.225 147.196 546.819C146.997 547.412 146.925 548.04 146.985 548.663C147.155 551.33 149.439 553.671 151.538 555.062C153.637 556.452 159.482 557.516 160.404 557.658C160.404 559.658 160.404 561.588 160.404 563.404C160.56 569.149 160.9 573.916 161.184 577.264C161.468 580.613 161.709 582.514 161.709 582.514C161.79 582.835 161.988 583.114 162.263 583.297C162.539 583.481 162.873 583.555 163.201 583.505C163.528 583.456 163.826 583.286 164.035 583.029C164.244 582.773 164.35 582.447 164.333 582.116C164.333 582.116 164.063 580.272 163.709 576.966C163.354 573.661 162.914 568.951 162.631 563.276C162.56 561.644 162.489 559.899 162.446 558.112C163.383 558.027 169.127 557.445 171.468 556.111C173.808 554.778 176.092 552.664 176.433 550.025C176.533 549.407 176.502 548.775 176.343 548.17C176.183 547.564 175.898 546.999 175.507 546.511C175.115 546.023 174.625 545.622 174.068 545.336C173.512 545.049 172.901 544.883 172.276 544.847C168.503 544.748 164.475 550.224 163.354 553.359C163.283 553.558 162.702 556.055 162.446 557.332C162.446 556.253 162.446 555.189 162.446 554.054C162.446 552.451 162.446 550.735 162.446 549.075C162.446 548.223 162.546 547.358 162.588 546.478C162.631 545.599 162.744 544.748 162.815 543.882C162.957 542.591 163.156 541.286 163.368 539.967C165.056 540.052 169.865 540.194 172.12 539.328C174.376 538.463 177.213 536.618 177.936 534.065C178.131 533.47 178.198 532.84 178.133 532.217C178.068 531.595 177.873 530.993 177.56 530.45C177.247 529.908 176.823 529.438 176.316 529.071C175.808 528.704 175.23 528.448 174.617 528.319C170.915 527.638 166.106 532.447 164.503 535.413L163.879 536.959C164.106 535.682 164.347 534.405 164.631 533.128C165.425 529.482 166.361 525.794 167.283 522.091L167.837 519.778C169.255 519.849 174.475 520.062 176.844 519.154C179.213 518.246 181.936 516.444 182.674 513.891C182.866 513.295 182.931 512.665 182.864 512.042C182.798 511.419 182.601 510.817 182.286 510.276C181.972 509.734 181.547 509.264 181.04 508.897C180.532 508.53 179.953 508.274 179.34 508.145C175.638 507.464 170.83 512.273 169.227 515.239C169.227 515.352 168.858 516.132 168.503 517.026C168.971 515.012 169.411 512.997 169.794 510.982C170.466 507.531 170.902 504.037 171.099 500.527C171.893 500.527 177.809 500.895 180.376 499.902C182.177 499.243 183.786 498.146 185.057 496.71C186.328 498.146 187.937 499.243 189.738 499.902C192.305 500.895 198.249 500.569 199.015 500.527C199.219 504.037 199.655 507.53 200.32 510.982C200.703 512.997 201.143 515.012 201.611 517.026C201.256 516.132 200.944 515.352 200.887 515.239C199.299 512.273 194.49 507.464 190.774 508.145C190.161 508.273 189.582 508.53 189.075 508.897C188.568 509.264 188.144 509.734 187.831 510.276C187.517 510.819 187.322 511.421 187.257 512.043C187.192 512.666 187.259 513.296 187.454 513.891C188.192 516.444 190.93 518.246 193.27 519.154C195.611 520.062 200.887 519.849 202.277 519.778C202.462 520.559 202.646 521.325 202.845 522.091C203.753 525.794 204.689 529.482 205.497 533.128C205.781 534.405 206.008 535.682 206.249 536.959C205.937 536.179 205.668 535.54 205.611 535.413C204.022 532.447 199.214 527.638 195.497 528.319C194.884 528.448 194.306 528.704 193.798 529.071C193.291 529.438 192.867 529.908 192.554 530.45C192.241 530.993 192.046 531.595 191.981 532.217C191.916 532.84 191.983 533.47 192.178 534.065C192.915 536.618 195.653 538.42 197.994 539.328C200.334 540.236 205.086 540.052 206.76 539.967C206.958 541.286 207.171 542.591 207.299 543.882C207.384 544.748 207.512 545.585 207.54 546.478C207.568 547.372 207.625 548.223 207.668 549.075C207.668 550.735 207.668 552.451 207.668 554.054C207.668 555.189 207.668 556.253 207.668 557.332C207.398 556.055 206.817 553.558 206.746 553.359C205.625 550.181 201.597 544.705 197.823 544.847C197.198 544.883 196.588 545.049 196.032 545.336C195.475 545.622 194.985 546.023 194.593 546.511C194.201 546.999 193.916 547.564 193.757 548.17C193.597 548.775 193.567 549.407 193.667 550.025C194.008 552.664 196.504 554.863 198.632 556.111C200.76 557.36 206.717 558.027 207.653 558.112C207.653 559.899 207.554 561.644 207.469 563.276C207.2 568.951 206.76 573.675 206.405 576.966C206.051 580.258 205.767 582.116 205.767 582.116C205.749 582.447 205.856 582.773 206.065 583.029C206.274 583.286 206.571 583.456 206.899 583.505C207.226 583.555 207.561 583.481 207.836 583.297C208.112 583.114 208.31 582.835 208.391 582.514V582.514C208.391 582.514 208.632 580.598 208.93 577.264C209.228 573.93 209.554 569.149 209.696 563.404C209.696 561.588 209.767 559.658 209.767 557.658C210.689 557.516 216.377 556.565 218.647 555.062C220.916 553.558 223.03 551.33 223.186 548.663C223.251 548.027 223.179 547.385 222.975 546.779C222.771 546.173 222.439 545.618 222.002 545.151C221.565 544.685 221.033 544.317 220.442 544.074C219.851 543.83 219.215 543.717 218.576 543.74Z" fill="#7A6EFF"/>
<g filter="url(#filter0_d)">
<rect x="172.436" y="196.398" width="5.73976" height="40.0462" rx="2.86988" fill="white"/>
</g>
<g filter="url(#filter1_d)">
<rect x="210.149" y="177.35" width="5.73976" height="58.7301" rx="2.86988" fill="white"/>
</g>
<g filter="url(#filter2_d)">
<rect x="247.861" y="194.044" width="5.73976" height="42.3998" rx="2.86988" fill="white"/>
</g>
<g filter="url(#filter3_d)">
<rect x="266.717" y="172.649" width="5.73976" height="63.4312" rx="2.86988" fill="white"/>
</g>
<g filter="url(#filter4_d)">
<rect x="229.005" y="211.577" width="5.73976" height="24.8671" rx="2.86988" fill="white"/>
</g>
<rect x="191.293" y="155.623" width="5.73976" height="80.8207" rx="2.86988" fill="#962DFF"/>
<rect x="210.149" y="177.35" width="5.73976" height="59.0942" rx="2.86988" fill="#4A3AFF"/>
<rect x="229.005" y="211.577" width="5.73976" height="24.8674" rx="2.86988" fill="#962DFF"/>
<rect x="247.861" y="194.044" width="5.73976" height="42.3996" rx="2.86988" fill="#4A3AFF"/>
<rect x="266.718" y="172.29" width="5.73976" height="64.1538" rx="2.86988" fill="#962DFF"/>
<rect x="172.436" y="196.398" width="5.73976" height="40.0462" rx="2.86988" fill="#4A3AFF"/>
<defs>
<filter id="filter0_d" x="167.707" y="191.668" width="15.1989" height="49.5053" filterUnits="userSpaceOnUse" color-interpolation-filters="sRGB">
<feFlood flood-opacity="0" result="BackgroundImageFix"/>
<feColorMatrix in="SourceAlpha" type="matrix" values="0 0 0 0 0 0 0 0 0 0 0 0 0 0 0 0 0 0 127 0"/>
<feOffset/>
<feGaussianBlur stdDeviation="2.36478"/>
<feColorMatrix type="matrix" values="0 0 0 0 0.290196 0 0 0 0 0.227451 0 0 0 0 1 0 0 0 0.25 0"/>
<feBlend mode="normal" in2="BackgroundImageFix" result="effect1_dropShadow"/>
<feBlend mode="normal" in="SourceGraphic" in2="effect1_dropShadow" result="shape"/>
</filter>
<filter id="filter1_d" x="205.42" y="172.62" width="15.1989" height="68.1892" filterUnits="userSpaceOnUse" color-interpolation-filters="sRGB">
<feFlood flood-opacity="0" result="BackgroundImageFix"/>
<feColorMatrix in="SourceAlpha" type="matrix" values="0 0 0 0 0 0 0 0 0 0 0 0 0 0 0 0 0 0 127 0"/>
<feOffset/>
<feGaussianBlur stdDeviation="2.36478"/>
<feColorMatrix type="matrix" values="0 0 0 0 0.290196 0 0 0 0 0.227451 0 0 0 0 1 0 0 0 0.25 0"/>
<feBlend mode="normal" in2="BackgroundImageFix" result="effect1_dropShadow"/>
<feBlend mode="normal" in="SourceGraphic" in2="effect1_dropShadow" result="shape"/>
</filter>
<filter id="filter2_d" x="243.131" y="189.315" width="15.1989" height="51.8589" filterUnits="userSpaceOnUse" color-interpolation-filters="sRGB">
<feFlood flood-opacity="0" result="BackgroundImageFix"/>
<feColorMatrix in="SourceAlpha" type="matrix" values="0 0 0 0 0 0 0 0 0 0 0 0 0 0 0 0 0 0 127 0"/>
<feOffset/>
<feGaussianBlur stdDeviation="2.36478"/>
<feColorMatrix type="matrix" values="0 0 0 0 0.290196 0 0 0 0 0.227451 0 0 0 0 1 0 0 0 0.25 0"/>
<feBlend mode="normal" in2="BackgroundImageFix" result="effect1_dropShadow"/>
<feBlend mode="normal" in="SourceGraphic" in2="effect1_dropShadow" result="shape"/>
</filter>
<filter id="filter3_d" x="261.987" y="167.919" width="15.1989" height="72.8903" filterUnits="userSpaceOnUse" color-interpolation-filters="sRGB">
<feFlood flood-opacity="0" result="BackgroundImageFix"/>
<feColorMatrix in="SourceAlpha" type="matrix" values="0 0 0 0 0 0 0 0 0 0 0 0 0 0 0 0 0 0 127 0"/>
<feOffset/>
<feGaussianBlur stdDeviation="2.36478"/>
<feColorMatrix type="matrix" values="0 0 0 0 0.588235 0 0 0 0 0.176471 0 0 0 0 1 0 0 0 0.25 0"/>
<feBlend mode="normal" in2="BackgroundImageFix" result="effect1_dropShadow"/>
<feBlend mode="normal" in="SourceGraphic" in2="effect1_dropShadow" result="shape"/>
</filter>
<filter id="filter4_d" x="222.204" y="204.776" width="19.3423" height="38.4696" filterUnits="userSpaceOnUse" color-interpolation-filters="sRGB">
<feFlood flood-opacity="0" result="BackgroundImageFix"/>
<feColorMatrix in="SourceAlpha" type="matrix" values="0 0 0 0 0 0 0 0 0 0 0 0 0 0 0 0 0 0 127 0"/>
<feOffset/>
<feGaussianBlur stdDeviation="3.40064"/>
<feColorMatrix type="matrix" values="0 0 0 0 0.588235 0 0 0 0 0.176471 0 0 0 0 1 0 0 0 0.25 0"/>
<feBlend mode="normal" in2="BackgroundImageFix" result="effect1_dropShadow"/>
<feBlend mode="normal" in="SourceGraphic" in2="effect1_dropShadow" result="shape"/>
</filter>
</defs>
</svg>
